<svg xmlns="http://www.w3.org/2000/svg" width="512" height="512" fill-rule="evenodd" clip-rule="evenodd" image-rendering="optimizeQuality" shape-rendering="geometricPrecision" text-rendering="geometricPrecision">
  <path fill="#0c0c17" d="M-.5-.5h133q-1.064 1.356-3 1-.392 5.123-3.5 0-1.403 6.86-4.5 1l-1 1.5a28 28 0 0 0 3.5 4.5q.892 2.098-.5 4a7.3 7.3 0 0 1 2 3.5q-.721 3.807-3 4.5-.027 2.81 1.5 1a4.46 4.46 0 0 1 1.5 2 12.4 12.4 0 0 1-4 2.5q1.684 1.566 4 2a48 48 0 0 1-4 7.5q.519 1.794 1.5 0-.595 6.507.5 12a20.2 20.2 0 0 1-6 1.5q8 3 0 6a6.98 6.98 0 0 1 2.5 3.5q3.227-3.918 2.5 0 2.586 4.972 6 2 2.044 1.047 3.5 0a6.8 6.8 0 0 0 1.5 3q1.794-.519 0-1.5a27.6 27.6 0 0 0 5-1.5q.116 1.875 2 2.5-5.755 2.247-6 8.5-9.314 2.076-16 9-4.109-2.595 1-3.5l-2-1q2.207-2.879-1-3l1 1-3 1q1.07 2.014-1 4a6.54 6.54 0 0 1 3 3q-1.911 1.465 0 2.5a108.8 108.8 0 0 0-17 18 45.4 45.4 0 0 0-8 8q-.595-1.538-2-.5-3.822 2.883-6 7-6.497-.212-2 4-1.743 1.24-3.5 2.5-3.549-2.157-1.5 1.5-3.438-1.652-4.5 2.5a3.65 3.65 0 0 0-1.5-1q-2.756 5.665-5 0a15.7 15.7 0 0 1-4-2q2.851-2.153 1-5-2.086 1.718-4 0 1.966-1.137 1.5-3-1 2-2 0-.296 3.542-3.5 5l2 1a26.6 26.6 0 0 1-3.5 2 6.8 6.8 0 0 0-1.5-3l-4 2q-1.329-1.238-1-3-2.712-.013-5 1.5.55 2.636-2.5 4.5-2.595-3.153-5.5.5v4l3 1q-2.362.504-4 2.5 3.69 2.822 6.5 0 .906 3.279 3.5.5-2.487-1.088-1.5-3.5 3.347 1.031 6.5 1 1.948-.885 2.5-3l5 3a15 15 0 0 1 3.5-3q1.046 2.827 3 1a29 29 0 0 0 4 1.5q-2 2.76.5 1.5a7.3 7.3 0 0 1 2 3q1.003-3.792 2.5 0-2.978 3.65-6.5 0-1.517 1.255-3.5 1v3q1.762-.329 3 1l-2 1a20.2 20.2 0 0 0-5-1q.342-2.782-2-2.5l1 1q-3.39 2.903-3 7.5-1.983-.255-3.5 1-1.684-5.477 3.5-7.5-6-1 0-2-.895-2.833-1-5.5-1.584 4.437-5 7.5 1.942 4.201 0 8.5a37 37 0 0 0 2 4.5 29.2 29.2 0 0 0-10 8q1.275 1.929 3.5-.5 2.421 4.987 6 1 .925 1.423-.5 2.5 5.974 3.413 0 3a3.94 3.94 0 0 0-1 2q1.527 4.317 5.5 6.5.671-2.864-2.5-3.5 7.228-3.901 1-9a7.25 7.25 0 0 0 2-2.5q-2.114-.231-5-.5 9.014-2.559 2-9a10.8 10.8 0 0 0 3-2.5q2.205 3.249 3 7.5 1.5 1 3 0-2.224-5.636 2-1.5-1.742 2.585.5 5 4.453-1.654.5-4a4.45 4.45 0 0 1 1.5-2l7 2q1.9-2.114 0-5-4.195 1.067-8.5 2l-1-1q3.93-.714 6-4a6.8 6.8 0 0 1 1.5 3 9.5 9.5 0 0 1 2.5-1.5q-3.877-2.991.5-1.5a11.1 11.1 0 0 0 3.5-2 10.3 10.3 0 0 1 1.5 4q.35-3.42 2.5-6 1.469 5.18 4.5 1 2.72 1.89 5.5 0-2-1.68-1.5-4 1.885 3.369 5.5 4 2.41 6.847-3.5 3-1.418.608-2 2-2.333-3.022-5.5-1a4.46 4.46 0 0 0 2 1.5 90 90 0 0 0-5 7.5q-1.16 1.817-2.5 0a4.93 4.93 0 0 0-.5 3q2.55.24 5-.5-1.437-1.72 1-3 7.533-.68 0 2.5 3.95 2.076 0 4l-1-2a23.6 23.6 0 0 1-3 3.5 14.4 14.4 0 0 1 5.5 2.5 15 15 0 0 0 3.5-3 3.65 3.65 0 0 1 1.5 1 39 39 0 0 1 4.5-4.5q2.78-.827 4 2-6.146 1.986-2 6.5a30 30 0 0 0-5 7.5 4.46 4.46 0 0 1 2 1.5 17.2 17.2 0 0 0-4 5.5q-8.9-.285-1 4a11.14 11.14 0 0 1-3.5 5.5q-4.2-1.942-8.5 0a4.45 4.45 0 0 1-1.5-2q-2.426 1.554-.5 3.5a7.3 7.3 0 0 1-3 2q2.484 2.696 3 6.5-4.141 3.696-7.5-1a40 40 0 0 0-4.5 4q-2.495-2.063-4 1a18 18 0 0 1-3.5-2 4.93 4.93 0 0 0-.5 3 31.8 31.8 0 0 0-10 3.5 26.7 26.7 0 0 0-1.5 6.5 3.65 3.65 0 0 0-1.5-1q-1.393 1.783-1 4a4.93 4.93 0 0 1 3 .5q-2.316.434-4 2l1 3a4.46 4.46 0 0 0-2 1.5q3.633 2.678 0 5 2 1.5 0 3 2.942 2.022.5 4-5.666-3.74-12.5-5-4.596 2.697-10 3 .255 1.983-1 3.5 5.886 3.117 2-2 2.418-1.08 4.5.5.531-3.461 3-1a11.1 11.1 0 0 0 3.5-2q5.534 3.093 0 7 1.783 1.393 4 1-.405-2.893 1.5-5 3.369.419 7.5 1 1.584-6.043 0-12 .865-3.075 4-3a385 385 0 0 0-.5 46 46 46 0 0 0 2 10q2.176 2.946 5.5 4 7.035 3.136 15 4a341 341 0 0 1 20.5 7 298 298 0 0 0 17 40 16.24 16.24 0 0 1 0 8l-17 30q-1.227 8.535 5.5 14a26 26 0 0 1 5 7 2.43 2.43 0 0 1-.5 2q-7.04-1.272-14.5 0v3a16.8 16.8 0 0 0 6.5-2q4.731 1.401-.5 2a4.93 4.93 0 0 0 .5 3q4.528-3.107 9.5-4.5 4.318 4.041-2 4.5l2 3a42.8 42.8 0 0 0 9 1.5 15 15 0 0 1 3 3.5 18.4 18.4 0 0 1-7 2q-.71 5.486-4 .5 2.141-3.553 5.5-1.5 3-2 0-4-3.67 3.816-7.5 0-1.56 3.736-2.5 0-.476 2.701-2 1a14.7 14.7 0 0 1-1.5 5l-2.5-6q-2.05 1.536-2.5-1.5.608-1.418 2-2-3.586-1.553-7-.5-8.006-3.835 0-4a6.85 6.85 0 0 1-1-4q4.225-.066 7-3l-3-2q2.257-2.012 2-5-4.337.331-8 2.5l2 1a31.4 31.4 0 0 0-7 3.5 10.94 10.94 0 0 1-4.5-3q-1.076 1.426-2.5.5-.699-1.948 0-4.5-6.33-.515-11.5-4-4.81 1.132-4.5 6a4.93 4.93 0 0 1-3-.5q1.73-1.37-.5-2.5a110 110 0 0 1-5 9l-4.5-5a11.4 11.4 0 0 1 2.5-2q1.775 1.846 3.5 0-3.227-3.327-8-4-1.625 1.298-.5 3 1.575-1.526 3.5-.5-2.201 1.647-2.5 4.5a11.3 11.3 0 0 0-3.5-1.5q.685-.621 1-1.5-5.577-2.053-2-6-3.939-1.423-8 0a6.85 6.85 0 0 0 1 4q-3.792 1.974 0 3.5-1.925 1.026-3.5-.5a15.7 15.7 0 0 1-2.5 4q3.837 2.43 0 4.5l2 1q-1.425 1.077-.5 2.5a36 36 0 0 0 4.5 3.5q-4.079.792-7.5-1.5-4.11 4.047-6-2a8.44 8.44 0 0 0-.5 4q-1.983.255-3.5-1-1 2.5 0 5l1-2q6 6.16 9.5-2a8.9 8.9 0 0 0 4 3 68 68 0 0 0 6.5-1q5 2 0 4l-1-2q-1.368 7.296-5.5.5-2.638-1.197-5 .5a7.25 7.25 0 0 0 2 2.5q-2.09 1.756-2.5 4.5a48 48 0 0 1-7.5-4 11.4 11.4 0 0 0-2 2.5 7.25 7.25 0 0 1 2 2.5q-1.817 1.83 0 3.5l-4 1q5.36 1.52 11 4-2 1 0 2-3.395 3.125-8 4.5a20 20 0 0 0-3.5 4q-3.297-5.446.5-8-1.962-1.689-4 0z"/>
  <path fill="#0c0c14" d="M132.5-.5h121q1.32 2.834 0 6a8.44 8.44 0 0 0-4 .5q1.701 1.524-1 2 3.875 4.718-1 9 1.654 3.585-2 1.5-1.5 4-3 0a26 26 0 0 0 4-4.5 23.6 23.6 0 0 1-3-3.5q-.984 3.726-6 2.5 6.497-7.006-2-2.5 1.393 2.733-2 4-.308-3.078 0-7h-3q1.38 5.064 1 10 5.381-4.05 2.5 2l-1-1a15.3 15.3 0 0 1-4.5 1.5q3.342 1.621 7 1.5a29 29 0 0 0-5 2.5q1.823 3.144 2.5-.5l.5 1.5q-2.09 1.95-1.5 4.5 3.75-3.055 8-1 .19-1.915-1.5-3.5 2.933-6.487 6 .5a100 100 0 0 0 5.5 2q12.284-.519 24-3 2.5 4 5 0a4.46 4.46 0 0 0 1.5 2q6.223-7.947 4 1 2.951-.36 5.5 1 2.81-7.797 4 1 .634-2.184 2.5-1.5a3.65 3.65 0 0 0-1 1.5q4.093.843 4.5 5 8.812-4.988 4 3-.803-2.656-2.5-1a3.65 3.65 0 0 0 1 1.5q6.055.91 12-.5.44 3.285 1.5 6-2.26-1.507-3.5-4-4.538 1.968-10 0-.24 2.55.5 5 1.527-1.81 1.5 1-2.123 4.185 3 4.5a9.5 9.5 0 0 0-2.5 1.5 18.5 18.5 0 0 0-.5 6q-3.135-11.36-6.5-23-3.671-4.461-9.5-4.5a215.5 215.5 0 0 0-58 1q-5.716 4.575-7 11.5a417 417 0 0 0-.5-11l-1-1q-1.424 4.05-5.5 2.5l2-1q-2-1.5 0-3a7.5 7.5 0 0 1-5-.5 10.8 10.8 0 0 0 2.5-3q2.748 2.037 5.5 1-4.32-3.02-6-6.5a15 15 0 0 0 3-3.5l-2-1a102 102 0 0 0-7.5 9q.116-1.857-.5-3-11.533 5.27-4-5.5-2.594-2.778-3.5.5l-1-1a20.4 20.4 0 0 1-1.5 5.5 7.25 7.25 0 0 1 2 2.5q-2.233.05-4 1.5a7.3 7.3 0 0 1 3 2q-9.237-1.783-3 5-2.451.74-5 .5-.066-4.47-1-1a7.3 7.3 0 0 0 2 3q-2.77 1.995-4.5-1a10.3 10.3 0 0 1-1.5 4l-1-8a26.6 26.6 0 0 0-2 3.5q1.58 2.082.5 4.5l-4-4a16.7 16.7 0 0 0-4 4q-1.98-2.56-3-5 6.177-4.828 13.5-6.5a38 38 0 0 1-6.5-2.5q-3.504 1.188-1.5 4l-1.5 1q-1.067-3.778-3.5-7.5 1.439-3.18.5-6.5-2.406 1.725-5 0-2.838 4.335-2.5-1 5.25.007 4.5-5a69 69 0 0 1-6.5 4.5q1.426 1.075.5 2.5-1-2-2 0-.926-1.425.5-2.5-2.639-1.195-5 .5 5.665 2.244 0 5-3.792-1.497 0-2.5-1.595-1.782-4-1.5.571 3.663-2 2a11.4 11.4 0 0 0-2 2.5q1.32 2.034 1 4.5a4.93 4.93 0 0 0-3 .5q2.184.634 1.5 2.5-1.517-1.255-3.5-1-.587 6.15-.5 12-2.95.323-6.5 2l3 3q1.137-1.966 3-1.5a38.4 38.4 0 0 1-6 9.5l-3-2q-2.306 5.725-6.5 2a4.46 4.46 0 0 0-1.5 2q1.085 3.285 3.5 6 1.731-3.686 4 0 2.191-2.075 2.5 1a27.6 27.6 0 0 1-5 1.5q1.794.981 0 1.5a6.8 6.8 0 0 1-1.5-3q-1.456 1.047-3.5 0-3.414 2.972-6-2 .727-3.918-2.5 0a6.98 6.98 0 0 0-2.5-3.5q8-3 0-6a20.2 20.2 0 0 0 6-1.5q-1.095-5.493-.5-12-.981 1.794-1.5 0a48 48 0 0 0 4-7.5q-2.316-.434-4-2a12.4 12.4 0 0 0 4-2.5 4.46 4.46 0 0 0-1.5-2q-1.527 1.81-1.5-1 2.279-.693 3-4.5a7.3 7.3 0 0 0-2-3.5q1.392-1.902.5-4a28 28 0 0 1-3.5-4.5l1-1.5q3.097 5.86 4.5-1 3.108 5.123 3.5 0 1.936.356 3-1"/>
  <path fill="#0c0c17" d="M253.5-.5h44q-.305 2.835 2 4.5a26.7 26.7 0 0 1 6.5 1.5l-1-4q7.35 4.138 12.5 8.5-3.909.675-4 4.5l6-2q-.196-4.243 3-4-1.966-1.137-1.5-3 2.187 1.87 4.5 0 2.28-2.025 2-4a13.27 13.27 0 0 1 5 5.5l-5-1a12.14 12.14 0 0 0 4.5 3.5q.255 3.322 2 6-1.446-6.867 5.5-7.5-4.298 2.037-1.5 5.5 1.76-3.255 5.5-3-.393 2.217 1 4 1.29-4.838-4-6.5a7.3 7.3 0 0 0 3-2q-2.184-.634-1.5-2.5a52.4 52.4 0 0 1 6.5 4l4-3q4.228 2.54 1 5.5 2.876-.04 5-2.5 1.656 1.697-1 2.5 3.496 2.7 0 6 5.007 1.81 5.5-3.5a725 725 0 0 0 5 6q.011-2.86 3.5-5-1.635-1.663 0-3 1.329 1.237 1 3a4.93 4.93 0 0 1 3 .5 23.6 23.6 0 0 0-3 3.5q-2.823-3.29-1.5 2 2.187 1.87 4.5 0l1 .5q-6.023 3.16 1 2 1.053-3.085-2-5.5a8.2 8.2 0 0 0 2.5-4q.993 5.778 2.5 0-2.669-3.652 2-3-.107 3.786 3 6-.519 1.794-1.5 0a11.3 11.3 0 0 1-1.5 3.5l3 1q-1.526 1.575-.5 3.5l3-5q.621.685 1.5 1a613 613 0 0 0 3.5-3q1.273 2.224 5 4 1.171 2.166-.5 4-2.543-1.187-5 1 1.534 3.593-3 3a4.93 4.93 0 0 0 .5 3q6.896-4.106 2 2-1.946-1.926-3.5.5 2.451.74 5 .5a4.93 4.93 0 0 1-.5 3q-4.546-1.09.5 2a67 67 0 0 0 6-2.5q-2.418-1.08-4.5.5a4.93 4.93 0 0 1-.5-3h5a8.4 8.4 0 0 0-.5-4l-1 1q-2.405-.852-2-3l1 1a8.9 8.9 0 0 1 3-4q.926 1.424-.5 2.5 2.5 5 5 0-5.653-1.148.5-2.5 2.662 1.155 4.5 3.5-2.844 1.597-.5 2.5a23.7 23.7 0 0 1 6.5-5.5l-5-4a10.8 10.8 0 0 1 3-2.5q-.28 1.975 2 4 1.03-3.082 3.5-5a59 59 0 0 1 2.5 8q2.559.599 4.5 0a58 58 0 0 0-.5-8q2.5-1.5 4-4l1 1.5a601 601 0 0 0-3 3.5q3.039 2.915 0 6.5a26 26 0 0 0 5 3.5q2.637-1.419 5 0a370 370 0 0 1-5 4.5q2.9 1.175 4.5-1.5l1 1a6.98 6.98 0 0 1 2.5-3.5l-1-1q1.77-2.844 4.5-4.5l1.5.5q-6 2 0 4-1.454 2.637-3.5 1.5-.886 1.475 1 2 4.214-.378 6-4 .981 1.794 1.5 0-5.371-1.284-.5-3a45 45 0 0 0 8 4q.04-3.907 3.5-3.5l-2 2q3.647 1.578 7 .5a61 61 0 0 1 3 4 11.4 11.4 0 0 0 2-2.5 20.4 20.4 0 0 0 5.5-1.5q.684 1.866-1.5 2.5l1.5 1.5 3-4q.724 1.422.5 3 2.466-.32 4.5 1a32 32 0 0 1 3.5-4 10.3 10.3 0 0 0-4-1.5l4-2-2-3q5.401-1.537 0-4.5a4.46 4.46 0 0 0-1.5 2q-.987-2.412 1.5-3.5-4.342-2.91-7-7.5.656-1.509 2 0a26 26 0 0 1 3.5 5q2.138-1.068 4.5-.5l-2-2q.174-1.902 1-4-1.863-.466-3 1.5-2.5-4.97-6-9h32v124q-1.609 1.737-3.5 0-1.647 1.326-1.5 3-3.65-.785-6-3.5.389-1.892 2-3l-1.5-.5a54.7 54.7 0 0 0-9 6q-.435-2.316-2-4l-1 2q-3.468-3.808-6 1-.38-1.818-2.5-3.5 1.58-2.082.5-4.5a3.65 3.65 0 0 1-1.5 1l-1-2a4.46 4.46 0 0 0-2 1.5q1.817 1.67 0 3.5a20 20 0 0 0 4 3.5q-4.176-1.379-9-1.5a8.4 8.4 0 0 0-.5-4q-.53 2.361-2 5-.426-3.579-3-2-.207-2.898 1.5-5.5l-1-1q2.362.568 4.5-.5a7.3 7.3 0 0 0 2 3q.435-2.316 2-4l1 2q3-1 4-4 1.974 3.792 3.5 0a4.46 4.46 0 0 0-2-1.5l1-1-4-2q2-2 0-4 1.962-1.236 4.5-1.5-.457 2.915 0 6 5.803-1.605 3.5-7 1.237-1.329 3-1v3q2.436.21 3.5-2l1 2a12.4 12.4 0 0 0 2.5-4q-2.761 1.433-7 0 .32-2.466-1-4.5 4.446-1.26 1-3 3.153-2.6 1-6 1.554-2.426 3.5-.5.684-1.866-1.5-2.5l3-1q-2.418-1.08-4.5.5a7.3 7.3 0 0 0-2-3q-2.098.825-4 1 .422-3.793 4-6 .555 4.17 3 6 .295-7.017 3-1 2.846-2.274 6.5-2-.399 2.77 1 2 2.305-6.516-4.5-9 .116 1.857-.5 3a58 58 0 0 1-6.5 0q-1-1 0-2 1.746-.502 4 0a4.46 4.46 0 0 0 1.5-2q-2.258-2.012-2-5-2.464.03-4-2-1.83 1.816-3.5 0l-1 2q-1.183-2.497-1-5l1 1q.435-2.316 2-4 .926 1.424-.5 2.5 5.997 1.065 2-3a23 23 0 0 0-5-2q2.418-1.08 4.5.5a4.93 4.93 0 0 0 .5-3h3v-3q-1.983-.255-3.5 1-3.014-3.487 1-6 2.57 2.18 4.5-.5-4.016-2.772-8 .5-1.491-5.972-3 0a15.3 15.3 0 0 0-5.5 3q-.634-2.184-2.5-1.5l1 1a38 38 0 0 0-2.5 6.5 48.4 48.4 0 0 0-5.5 5.5q.195 1.588 1.5 2.5 1.34-1.816 2.5 0-5.205 3.454-9-2-2.313 1.87-4.5 0-.926 1.424.5 2.5-4.1 1.137-7.5-1.5-3.675 2.012-4.5-2.5 3.936-.864 2-4 3.34-.181 5.5-2.5.623 2.686 3 4 3.236-3.327 7.5-3.5.97 2.415 2.5 4.5 3.579-1.895 5.5-5.5a6.98 6.98 0 0 1-3.5-2.5q-2.9 2.879.5 4.5a9.5 9.5 0 0 0-2.5 1.5q-1.46-5.46-7-7l-2 2a26.6 26.6 0 0 1-7-7q-.553 3.828 0 8-4.62.703-9.5.5.686.621 1 1.5-4.113 6.18-2-1-2.118-1.96-5-2.5 2.361-.53 5-2-3.274-2.54-7-.5-2.298 4.876-5.5 1-1.359 3.168-4.5 2.5 3.685-3.238-2-2.5a4.93 4.93 0 0 1-.5 3l-1-1a18 18 0 0 1-3.5 2q-3.777-3.56-9-3-.699 2.552 0 4.5-3.539 2.037-7 3a13.9 13.9 0 0 1 3-4 49 49 0 0 1-9-3.5q-2.013 2.103-2.5-1a4.46 4.46 0 0 1-1.5 2 23.6 23.6 0 0 1-1-3.5q8.928 1.553 1-2.5a19 19 0 0 1-5 3q-1.771-2.453 0-5a12.4 12.4 0 0 0-2.5-4q-.434 3.32.5 7a14.8 14.8 0 0 1-4 3.5q4.88 6.19 5-.5h4q-.507 4.238 3 6.5-2.495.398-4.5-1.5a13.3 13.3 0 0 0-4.5 3q-1.44-6.28-4.5 1-1.34-1.816-2.5 0 1.972 2.093-1 3 .85-3.595-2-7 1.866-2.45-1.5-3l-1.5 1a6.85 6.85 0 0 1 1 4q-1.983.255-3.5-1a7.25 7.25 0 0 1-2.5 2q-5.372-2.855-6.5 3-1.697-1.656-2.5 1 1.676 4.758 2 10l-1 1a27 27 0 0 0-3.5-6 4.93 4.93 0 0 0-.5 3 6.85 6.85 0 0 0-4 1q-1.548-2.31-4-1.5l1 1a16.7 16.7 0 0 0-4 4q2.305 1.665 2 4.5 5.248-.362 1 2.5 2.25 3.25 3.5-.5 1.077 1.425 2.5.5-3.089-1.779-.5-3.5a95 95 0 0 1 6.5 2 3.65 3.65 0 0 0 1.5-1q1.03 3.1-.5 6 4.172 2.424 8 .5-2.184-.634-1.5-2.5 1.986 2.07 4 1 1.202 4.093-3 5a89 89 0 0 0-8.5-2.5 9.5 9.5 0 0 1-1.5-2.5 12.9 12.9 0 0 0-.5 5q3.333-.483 5.5 2 1.574-1.526 3.5-.5a26.8 26.8 0 0 0-7.5 3.5q-2.655-5.024-7.5-3 .356 1.936-1 3a295 295 0 0 0-38-15.5q-5.619-7.185-6-16.5a18.5 18.5 0 0 1 .5-6 9.5 9.5 0 0 1 2.5-1.5q-5.123-.315-3-4.5.027-2.81-1.5-1a12.9 12.9 0 0 1-.5-5q5.462 1.968 10 0 1.24 2.493 3.5 4-1.06-2.715-1.5-6a31.3 31.3 0 0 1-12 .5 3.65 3.65 0 0 1-1-1.5q1.697-1.656 2.5 1 4.812-7.988-4-3-.407-4.157-4.5-5a3.65 3.65 0 0 1 1-1.5q-1.866-.684-2.5 1.5-1.19-8.797-4-1-2.549-1.36-5.5-1 2.223-8.947-4-1a4.46 4.46 0 0 1-1.5-2q-2.5 4-5 0-11.716 2.481-24 3a100 100 0 0 1-5.5-2q-3.067-6.987-6-.5 1.69 1.585 1.5 3.5-4.25-2.055-8 1-.59-2.55 1.5-4.5l-.5-1.5q-.677 3.644-2.5.5a29 29 0 0 1 5-2.5q-3.658.121-7-1.5a15.3 15.3 0 0 0 4.5-1.5l1 1q2.881-6.05-2.5-2 .38-4.936-1-10h3q-.308 3.922 0 7 3.393-1.267 2-4 8.497-4.506 2 2.5 5.016 1.226 6-2.5a23.6 23.6 0 0 0 3 3.5 26 26 0 0 1-4 4.5q1.5 4 3 0 3.654 2.085 2-1.5 4.875-4.282 1-9 2.701-.476 1-2a8.44 8.44 0 0 1 4-.5q1.32-3.166 0-6"/>
  <path fill="#0c0c13" d="M297.5-.5h182q3.5 4.03 6 9 1.137-1.966 3-1.5-.826 2.098-1 4l2 2q-2.362-.568-4.5.5a26 26 0 0 0-3.5-5q-1.344-1.509-2 0 2.658 4.59 7 7.5-2.487 1.088-1.5 3.5a4.46 4.46 0 0 1 1.5-2q5.401 2.963 0 4.5l2 3-4 2q2.157.329 4 1.5a32 32 0 0 0-3.5 4q-2.034-1.32-4.5-1a4.93 4.93 0 0 0-.5-3l-3 4-1.5-1.5q2.184-.634 1.5-2.5a20.4 20.4 0 0 1-5.5 1.5 11.4 11.4 0 0 1-2 2.5 61 61 0 0 0-3-4q-3.353 1.078-7-.5l2-2q-3.46-.407-3.5 3.5a45 45 0 0 1-8-4q-4.871 1.716.5 3-.519 1.794-1.5 0-1.786 3.622-6 4-1.886-.525-1-2 2.046 1.137 3.5-1.5-6-2 0-4l-1.5-.5q-2.73 1.656-4.5 4.5l1 1a6.98 6.98 0 0 0-2.5 3.5l-1-1q-1.6 2.675-4.5 1.5 2.562-2.265 5-4.5-2.363-1.419-5 0a26 26 0 0 1-5-3.5q3.039-3.585 0-6.5a601 601 0 0 1 3-3.5l-1-1.5q-1.5 2.5-4 4 .534 4.096.5 8-1.941.599-4.5 0a59 59 0 0 0-2.5-8q-2.47 1.918-3.5 5-2.28-2.025-2-4a10.8 10.8 0 0 0-3 2.5l5 4a23.7 23.7 0 0 0-6.5 5.5q-2.344-.903.5-2.5-1.838-2.345-4.5-3.5-6.153 1.352-.5 2.5-2.5 5-5 0 1.426-1.076.5-2.5a8.9 8.9 0 0 0-3 4l-1-1q-.405 2.148 2 3l1-1a8.4 8.4 0 0 1 .5 4h-5a4.93 4.93 0 0 0 .5 3q2.082-1.58 4.5-.5a67 67 0 0 1-6 2.5q-5.046-3.09-.5-2a4.93 4.93 0 0 0 .5-3 12.9 12.9 0 0 1-5-.5q1.554-2.426 3.5-.5 4.896-6.106-2-2a4.93 4.93 0 0 1-.5-3q4.534.593 3-3 2.457-2.187 5-1 1.671-1.834.5-4-3.727-1.776-5-4a613 613 0 0 1-3.5 3 3.65 3.65 0 0 1-1.5-1l-3 5q-1.026-1.925.5-3.5l-3-1a11.3 11.3 0 0 0 1.5-3.5q.981 1.794 1.5 0-3.107-2.214-3-6-4.669-.652-2 3-1.507 5.778-2.5 0a8.2 8.2 0 0 1-2.5 4q3.053 2.415 2 5.5-7.023 1.16-1-2l-1-.5q-2.313 1.87-4.5 0-1.323-5.29 1.5-2a23.6 23.6 0 0 1 3-3.5 4.93 4.93 0 0 0-3-.5q.329-1.763-1-3-1.635 1.337 0 3-3.489 2.14-3.5 5a725 725 0 0 1-5-6q-.493 5.31-5.5 3.5 3.496-3.3 0-6 2.656-.803 1-2.5-2.124 2.46-5 2.5 3.228-2.96-1-5.5l-4 3a52.4 52.4 0 0 0-6.5-4q-.684 1.866 1.5 2.5a7.3 7.3 0 0 1-3 2q5.29 1.662 4 6.5-1.393-1.783-1-4-3.74-.255-5.5 3-2.798-3.463 1.5-5.5-6.946.633-5.5 7.5-1.745-2.678-2-6a12.14 12.14 0 0 1-4.5-3.5l5 1a13.27 13.27 0 0 0-5-5.5q.28 1.975-2 4-2.313 1.87-4.5 0-.466 1.863 1.5 3-3.196-.243-3 4l-6 2q.091-3.825 4-4.5-5.15-4.362-12.5-8.5l1 4a26.7 26.7 0 0 0-6.5-1.5q-2.305-1.665-2-4.5"/>
  <path fill="#0c0c17" d="M223.5 42.5q-5.302-2.93-8.5 2a40.7 40.7 0 0 0-3.5-7q-2.153 1.986-3 5-3.703-1.196-7-5l-1 1q3.622 2.263.5 5a9.5 9.5 0 0 0-2.5-1.5q1.817-1.34 0-2.5-1.5.5-2 2a15.85 15.85 0 0 0 6 5.5q-3.477.513-6.5-1.5-.75 1.75-2.5 2.5 5.618-.052 2 3 1.988-.223 3.5.5 1.197 2.638-.5 5-2.263-2.886-6-3.5 3.74-2.868-.5-5.5-2.736 1.873.5 3.5-2.166 1.17-4-.5a37 37 0 0 1 2-4.5q-3.347-.245-4 3.5.753 1.824 1 3.5-1.926 1.026-3.5-.5-1.595 1.407-3.5 3a11.1 11.1 0 0 0-3.5-2q-2.168 1.863-4.5 2.5 1.395-2.093 0-4.5a7.3 7.3 0 0 1 2-3l-2-3q2.31-1.548 1.5-4a4.46 4.46 0 0 1-1.5 2q-.844-3.315-4-4.5 3.606-.762 2-3.5-2.289 3.237-4.5-1-1 2-2 0-.5 2.32 1.5 4-7.839 3.972.5 5l3-1a29 29 0 0 0 1.5 4q-1.143.615-3 .5 1.437 1.722-1 3 2.678 2.39.5 4.5-6.759-5.463-11.5-12.5 3.644-.677.5-2.5-1.305.912-1.5 2.5a273 273 0 0 0 4 4q-1.724 2.615-4 .5-1.03-3.082-3.5-5-.926 1.424.5 2.5-2.21 1.064-2 3.5-2.94-.957-5.5 0-.684 1.866 1.5 2.5.362 2.345-1.5 4.5-1.566-1.684-2-4a6.98 6.98 0 0 1-3.5 2.5q3.587 1.963 0 3 3.155 1.28 0 3.5-.309-3.075-2.5-1-2.269-3.686-4 0-2.415-2.715-3.5-6a4.46 4.46 0 0 1 1.5-2q4.194 3.725 6.5-2l3 2a38.4 38.4 0 0 0 6-9.5q-1.863-.466-3 1.5l-3-3q3.55-1.677 6.5-2-.087-5.85.5-12 1.983-.255 3.5 1 .684-1.866-1.5-2.5a4.93 4.93 0 0 1 3-.5q.32-2.466-1-4.5a11.4 11.4 0 0 1 2-2.5q2.571 1.663 2-2 2.405-.282 4 1.5-3.792 1.003 0 2.5 5.665-2.756 0-5 2.361-1.695 5-.5-1.426 1.075-.5 2.5 1-2 2 0 .926-1.425-.5-2.5a69 69 0 0 0 6.5-4.5q.75 5.007-4.5 5-.338 5.335 2.5 1 2.594 1.725 5 0 .939 3.32-.5 6.5 2.433 3.722 3.5 7.5l1.5-1q-2.004-2.812 1.5-4a38 38 0 0 0 6.5 2.5q-7.323 1.672-13.5 6.5 1.02 2.44 3 5a16.7 16.7 0 0 1 4-4l4 4q1.08-2.418-.5-4.5a26.6 26.6 0 0 1 2-3.5l1 8a10.3 10.3 0 0 0 1.5-4q1.73 2.995 4.5 1a7.3 7.3 0 0 1-2-3q.934-3.47 1 1 2.549.24 5-.5-6.237-6.783 3-5a7.3 7.3 0 0 0-3-2q1.767-1.45 4-1.5a7.25 7.25 0 0 0-2-2.5 20.4 20.4 0 0 0 1.5-5.5l1 1q.906-3.278 3.5-.5-7.533 10.77 4 5.5.616 1.143.5 3a102 102 0 0 1 7.5-9l2 1a15 15 0 0 1-3 3.5q1.68 3.48 6 6.5-2.752 1.037-5.5-1a10.8 10.8 0 0 1-2.5 3 7.5 7.5 0 0 0 5 .5q-2 1.5 0 3l-2 1q4.076 1.55 5.5-2.5l1 1q.308 5.172.5 11"/>
  <path fill="#44647d" d="M304.5 57.5q.381 9.315 6 16.5a295 295 0 0 1 38 15.5q1.185 1.352 3 2-3.263 4.592-8.5 2l-3 3a4.46 4.46 0 0 1-1.5-2q1.887.774 3-2a4.45 4.45 0 0 0-2-1.5l1-1a23 23 0 0 1-5-2q1.81-1.527-1-1.5a7.3 7.3 0 0 0-3 2q-4.521-3.23-6.5-7-2.779 2.594.5 3.5-2 1 0 2l-1.5 1.5a13 13 0 0 0-4.5-4 9.4 9.4 0 0 0 3-3 58 58 0 0 0-6.5 0q-2.873-7.932-2 0-8.715 5.034-9.5-5 1.763.329 3-1-2.341-1.27-4.5 1-2.048-1.64-1-4 3.194 2.045 1.5-1 3.98-3.108-1-5-2.748 3.685-5 0a12.4 12.4 0 0 1 2.5-4l1 1q.76-2.244-1.5-3.5 5.266-2.454 1-3.5 2.058-3.18-2-3 .571-3.662-2-2-4.355-3.079 1-4l-.5-1q-1.98.449-4.5.5 1.058 2.334-2 3.5-1.163-2.963-4-2.5-1.712 1.112 0 2.5a11.5 11.5 0 0 1 5 3.5 7.5 7.5 0 0 0-5 .5q6.462 3.344 2 9-1.846-1.725 0-3.5l-1.5-1.5a8.4 8.4 0 0 0-.5 4q-6.795.78-1 3.5-2.657 3.17-4.5-.5a16.2 16.2 0 0 1-4.5 5q.702 2.45 3 3.5-.957 2.56 0 5.5-6.587-1.587-8-8-3.317.7-6 3 1.623.373 4 .5.686.621 1 1.5l-4 2q1.827 1.954-1 3a4.45 4.45 0 0 0 2 1.5 15.3 15.3 0 0 0-1.5 4.5q-2.349-.84-4 2-3.407-2.901-6 0-2.738-1.605-3.5 2a25.5 25.5 0 0 0 4 4.5l-1.5 1.5a347 347 0 0 0-5-5q-2.229 3.118-6 4l-.5-1.5a601 601 0 0 0 3-3.5q-1.238-1.426-.5-3 1.774 1.846 3.5 0a17.8 17.8 0 0 0-8-2q.802-3.954 4-6.5a59.7 59.7 0 0 0-9-5q1.978-2.442 4 .5.355-1.12 1-2.5-1.743-1.24-3.5-2.5a20 20 0 0 0-4.5 3 4.45 4.45 0 0 1-2-1.5q2.99-2.36 4-4.5a4.46 4.46 0 0 1 1.5 2l4.5-5-1.5-1a26 26 0 0 1-8.5.5 23.6 23.6 0 0 1-1 3.5 67 67 0 0 0-3.5-5 35.6 35.6 0 0 1-6 3q-.406 2.148 2 3l1-3q1.43 3.138 4 1 .561 1.374 1.5 2.5-1.61 1.876 0 4a601 601 0 0 0-3 3.5l2 2-1.5 1q-5.136-.637-10.5 0-1.64-2.052 1-3.5-2.41-.172-4.5 1.5-1.545-.504-1.5-2 4.973-1.728 6.5-7a363 363 0 0 0 5.5-26q1.284-6.925 7-11.5a215.5 215.5 0 0 1 58-1q5.829.039 9.5 4.5 3.365 11.64 6.5 23"/>
  <path fill="#0b0c14" d="M223.5 42.5a363 363 0 0 1-5.5 26q-1.527 5.272-6.5 7a187.4 187.4 0 0 0-38 15.5q-4.5 1-9 0l-28-17a16.25 16.25 0 0 0-8 0 159 159 0 0 1-12 9.5q-1.911-1.035 0-2.5a6.54 6.54 0 0 0-3-3q2.07-1.986 1-4l3-1-1-1q3.207.121 1 3l2 1q-5.109.905-1 3.5 6.686-6.924 16-9 .245-6.253 6-8.5-1.884-.625-2-2.5 3.155-2.22 0-3.5 3.587-1.037 0-3a6.98 6.98 0 0 0 3.5-2.5q.434 2.316 2 4 1.862-2.155 1.5-4.5-2.184-.634-1.5-2.5 2.56-.957 5.5 0-.21-2.436 2-3.5-1.426-1.076-.5-2.5 2.47 1.918 3.5 5 2.276 2.115 4-.5a273 273 0 0 1-4-4q.195-1.588 1.5-2.5 3.144 1.823-.5 2.5 4.741 7.037 11.5 12.5 2.178-2.11-.5-4.5 2.437-1.278 1-3 1.857.115 3-.5a29 29 0 0 1-1.5-4l-3 1q-8.339-1.028-.5-5-2-1.68-1.5-4 1 2 2 0 2.211 4.237 4.5 1 1.606 2.738-2 3.5 3.156 1.185 4 4.5a4.46 4.46 0 0 0 1.5-2q.81 2.452-1.5 4l2 3a7.3 7.3 0 0 0-2 3q1.395 2.407 0 4.5 2.332-.637 4.5-2.5a11.1 11.1 0 0 1 3.5 2 176 176 0 0 0 3.5-3q1.574 1.526 3.5.5-.247-1.676-1-3.5.653-3.745 4-3.5a37 37 0 0 0-2 4.5q1.834 1.67 4 .5-3.236-1.627-.5-3.5 4.24 2.632.5 5.5 3.737.614 6 3.5 1.697-2.362.5-5-1.512-.723-3.5-.5 3.618-3.052-2-3 1.75-.75 2.5-2.5 3.023 2.013 6.5 1.5a15.85 15.85 0 0 1-6-5.5q.5-1.5 2-2 1.817 1.16 0 2.5 1.375.561 2.5 1.5 3.122-2.737-.5-5l1-1q3.297 3.804 7 5 .847-3.014 3-5a40.7 40.7 0 0 1 3.5 7q3.198-4.93 8.5-2"/>
  <path fill="#0b0c13" d="M511.5 123.5v2q-1.101 2.144-3.5 3-3.961-.604-7-3a7.3 7.3 0 0 0-2 3 12.4 12.4 0 0 0-2.5-4 4.46 4.46 0 0 0-2 1.5 330 330 0 0 1 5 5.5q-1.442 5.935-3 0-4.793 2.066-1.5 6 1.088-2.487 3.5-1.5-2.159 1.486-3 4a10.3 10.3 0 0 0-4 1.5 3.65 3.65 0 0 0 1 1.5 21.4 21.4 0 0 0-5 0 10.8 10.8 0 0 1 3 2.5q3.533-3.888 6 .5-2 1.5 0 3-3.103.486-1 2.5-1.731 3.111-6.5 5-1.952-.897-2.5-3 1.712-1.388 0-2.5a57 57 0 0 1-6.5-1.5l-1.5 1 3 2.5q-3.268.663-2 3h-4q5.229 2.92 1 7a124 124 0 0 1 7 4.5q1.72 3.397.5 7-4.385 1.599-9.5 0-.255 1.983 1 3.5-5.101-.399-5 4.5a12.9 12.9 0 0 0-5 .5q3.755.193 6 3l-1 1q2.877 2.655 1.5 6.5-2.23-1.862-2.5 1.5 2.541 6.471 9 3.5a9.4 9.4 0 0 1 3 3q2.156-3.746-1-6.5.771-3.623 3-4-.608-1.418-2-2a15.3 15.3 0 0 0 4.5-1.5q.621.686 1.5 1-.017-1.412 1.5-2l1.5.5q-1.255 1.517-1 3.5-2.466.32-4.5-1-.739 1.574.5 3-3.453 2.248 1 4a18 18 0 0 1-2 3.5l2 1q-.883 5.019 2 0-.699-1.949 0-4.5 4.827.226 1 2.5 1.712 1.112 0 2.5 1.654.747 3 1-1.594 3.481-4.5 3-3.117 5.886 2 2 .724 1.422.5 3-2.712-.013-5 1.5a17.7 17.7 0 0 0 6-.5v-3a4.93 4.93 0 0 1 3 .5q-2.538 2.101-2 5.5-1.983.255-3.5-1-3.005 3.338 1.5 5 1.662-4.505 5-1.5a4.93 4.93 0 0 1-3 .5q-.667 4.298 2 7.5-3.636.895-5.5-2.5l-1.5.5a4.46 4.46 0 0 1 2 1.5l-3 2.5q3.711.17 6 3-2.392-.926-4 1 2.107 1.904 5 1.5.119-7.488 3 0 7.208-4.272 2.5 2-2.098-.826-4-1-3.474 1.533-1.5 4.5l-2 1q2.5 1.5 4 4a4.46 4.46 0 0 0-2 1.5q2.178 4.887-2 1.5a3.65 3.65 0 0 0 1-1.5q-3.797-3.356-8 0 2.22.92 4 1-4.347 5.211-4 12 4.254-.447 1.5 2l-1-1q-1.03 5.207 3 1l.5 1-4 12q1.509 1.344 0 2a14.7 14.7 0 0 1-1.5-5q-.154 4.229-1.5 6a235.3 235.3 0 0 0-1.5-56 17.8 17.8 0 0 0-4.5-5.5 1054 1054 0 0 0-31-8q-4.593-1.591-7.5-5.5a210.3 210.3 0 0 0-15-37 25.2 25.2 0 0 1 0-10 626 626 0 0 0 17-29 12.5 12.5 0 0 0 0-7 164.4 164.4 0 0 0-31.5-33 127 127 0 0 0-12-10.5 16.25 16.25 0 0 0-8 0 626 626 0 0 1-29 17 18.4 18.4 0 0 1-6 .5h-1q-1.815-.648-3-2 1.356-1.064 1-3 4.845-2.024 7.5 3a26.8 26.8 0 0 1 7.5-3.5q-1.926-1.026-3.5.5-2.167-2.483-5.5-2-.24-2.55.5-5 .561 1.374 1.5 2.5a89 89 0 0 1 8.5 2.5q4.202-.907 3-5-2.014 1.07-4-1-.684 1.866 1.5 2.5-3.828 1.924-8-.5 1.53-2.9.5-6-.621.685-1.5 1a95 95 0 0 0-6.5-2q-2.589 1.721.5 3.5-1.423.925-2.5-.5-1.25 3.75-3.5.5 4.248-2.862-1-2.5.305-2.835-2-4.5a16.7 16.7 0 0 1 4-4l-1-1q2.452-.81 4 1.5a6.85 6.85 0 0 1 4-1 4.93 4.93 0 0 1 .5-3 27 27 0 0 1 3.5 6l1-1q-.324-5.242-2-10 .803-2.656 2.5-1 1.128-5.855 6.5-3a7.25 7.25 0 0 0 2.5-2q1.517 1.255 3.5 1a6.85 6.85 0 0 0-1-4l1.5-1q3.366.55 1.5 3 2.85 3.405 2 7 2.972-.907 1-3 1.16-1.816 2.5 0 3.06-7.28 4.5-1a13.3 13.3 0 0 1 4.5-3q2.005 1.898 4.5 1.5-3.507-2.262-3-6.5h-4q-.12 6.69-5 .5a14.8 14.8 0 0 0 4-3.5q-.934-3.68-.5-7a12.4 12.4 0 0 1 2.5 4q-1.771 2.547 0 5a19 19 0 0 0 5-3q7.928 4.053-1 2.5.34 1.703 1 3.5a4.46 4.46 0 0 0 1.5-2q.487 3.103 2.5 1a49 49 0 0 0 9 3.5 13.9 13.9 0 0 0-3 4q3.461-.963 7-3-.699-1.948 0-4.5 5.223-.56 9 3a18 18 0 0 0 3.5-2l1 1a4.93 4.93 0 0 0 .5-3q5.685-.738 2 2.5 3.141.668 4.5-2.5 3.202 3.876 5.5-1 3.726-2.04 7 .5-2.639 1.47-5 2 2.882.54 5 2.5-2.113 7.18 2 1a3.65 3.65 0 0 0-1-1.5q4.88.203 9.5-.5-.553-4.172 0-8a26.6 26.6 0 0 0 7 7l2-2q5.54 1.54 7 7a9.5 9.5 0 0 1 2.5-1.5q-3.4-1.621-.5-4.5a6.98 6.98 0 0 0 3.5 2.5q-1.921 3.605-5.5 5.5a20.5 20.5 0 0 1-2.5-4.5q-4.264.173-7.5 3.5-2.377-1.314-3-4-2.16 2.319-5.5 2.5 1.936 3.136-2 4 .825 4.512 4.5 2.5 3.4 2.637 7.5 1.5-1.426-1.076-.5-2.5 2.187 1.87 4.5 0 3.795 5.454 9 2-1.16-1.816-2.5 0-1.305-.912-1.5-2.5a48.4 48.4 0 0 1 5.5-5.5 38 38 0 0 1 2.5-6.5l-1-1q1.866-.684 2.5 1.5a15.3 15.3 0 0 1 5.5-3q1.509-5.972 3 0 3.984-3.272 8-.5-1.93 2.68-4.5.5-4.014 2.512-1 6 1.517-1.255 3.5-1v3h-3a4.93 4.93 0 0 1-.5 3q-2.082-1.58-4.5-.5a23 23 0 0 1 5 2q3.997 4.065-2 3 1.426-1.076.5-2.5-1.565 1.684-2 4l-1-1q-.183 2.503 1 5l1-2q1.67 1.816 3.5 0 1.536 2.03 4 2-.258 2.988 2 5a4.46 4.46 0 0 1-1.5 2q-2.254-.502-4 0-1 1 0 2 3.317.185 6.5 0 .616-1.143.5-3 6.805 2.484 4.5 9-1.399.77-1-2-3.654-.274-6.5 2-2.705-6.017-3 1-2.445-1.83-3-6-3.578 2.207-4 6 1.902-.175 4-1a7.3 7.3 0 0 1 2 3q2.082-1.58 4.5-.5l-3 1q2.184.634 1.5 2.5-1.946-1.926-3.5.5 2.153 3.4-1 6 3.446 1.74-1 3 1.32 2.034 1 4.5 4.239 1.433 7 0a12.4 12.4 0 0 1-2.5 4l-1-2q-1.064 2.21-3.5 2v-3q-1.763-.329-3 1 2.303 5.395-3.5 7-.457-3.085 0-6-2.538.264-4.5 1.5 2 2 0 4l4 2-1 1a4.46 4.46 0 0 1 2 1.5q-1.526 3.792-3.5 0-1 3-4 4l-1-2q-1.565 1.684-2 4a7.3 7.3 0 0 1-2-3q-2.138 1.068-4.5.5l1 1q-1.707 2.602-1.5 5.5 2.574-1.579 3 2 1.47-2.639 2-5a8.4 8.4 0 0 1 .5 4q4.824.121 9 1.5a20 20 0 0 1-4-3.5q1.817-1.83 0-3.5a4.46 4.46 0 0 1 2-1.5l1 2a3.65 3.65 0 0 0 1.5-1q1.08 2.418-.5 4.5 2.12 1.682 2.5 3.5 2.532-4.808 6-1l1-2q1.565 1.684 2 4a54.7 54.7 0 0 1 9-6l1.5.5q-1.611 1.108-2 3 2.35 2.715 6 3.5-.147-1.674 1.5-3 1.891 1.737 3.5 0"/>
  <path fill="#44647d" d="M407.5 84.5q-2.806-.538-4.5-3l-1 1q-2.918-2.064-6-5-2.934.426-6.5 0v4q2.549-.24 5 .5 1.314 2.377 4 3 1.426 1.076.5 2.5-6.62 2.88 1.5 3.5a26.6 26.6 0 0 1-2 3.5l-2-2q-1.388 1.71-2.5 0a7.3 7.3 0 0 0-2 3q-3.67-3.373-7.5-.5 5.083 1.416 9 3l-1.5 1.5q-3.122-1.25-6.5 0 .329-1.762-1-3 .306 1.545-1.5 3-2.742-2.854.5-5.5a4.45 4.45 0 0 1-2-1.5 55 55 0 0 1 4.5-2l1 2q2.446-1.47 5.5-4.5-4.948-.625-9-3a12.4 12.4 0 0 0 4-2.5q-3.307-3.83-7 0-3.266-1.506-1 2a10.8 10.8 0 0 0-2.5 3q-.582-1.392-2-2a15 15 0 0 0-3.5 3 246 246 0 0 0-7 14q2.087 3.654-1.5 2-2.423 2.266 0 4l1-1q2.039 5.175 6.5 1.5-4.856-2.764-1.5-7.5 3.95 1.927 6.5-2a67 67 0 0 1 6 2.5q-1.13 2.23-2.5.5l-3 5q-5.947-1.007-1 3 1.112-1.712 2.5 0 2.841-1.651 2-4l3 1.5q-1.255 1.517-1 3.5a4.93 4.93 0 0 1 3 .5q-1 3-4 4 1.375.561 2.5 1.5a6.55 6.55 0 0 1 3-3q1.112 1.712 2.5 0a29 29 0 0 0 4 1.5q-.912 1.305-2.5 1.5-4.357.717-9 0a4.46 4.46 0 0 1-1.5 2q-4.845-3.102-9.5 1a74 74 0 0 1-12.5-3.5 3.65 3.65 0 0 1-1-1.5q1.447-2.12 3-2.5a9.3 9.3 0 0 0-2-2.5 32.1 32.1 0 0 1 6-10q-1.337-1.635-3 0a7.25 7.25 0 0 1-2.5-2q.07-2.72-.5-5a67 67 0 0 0-5.5 2q-.684-1.866 1.5-2.5-.834-.575-1-1.5a18.4 18.4 0 0 0 6-.5 626 626 0 0 0 29-17 16.25 16.25 0 0 1 8 0 127 127 0 0 1 12 10.5"/>
  <path fill="#446381" d="M351.5 91.5h1q.166.925 1 1.5-2.184.634-1.5 2.5a67 67 0 0 1 5.5-2q.57 2.28.5 5a7.25 7.25 0 0 0 2.5 2q1.663-1.635 3 0a32.1 32.1 0 0 0-6 10 9.3 9.3 0 0 1 2 2.5q-1.553.38-3 2.5a3.65 3.65 0 0 0 1 1.5 74 74 0 0 0 12.5 3.5q4.655-4.102 9.5-1a4.46 4.46 0 0 0 1.5-2q4.643.717 9 0 1.588-.195 2.5-1.5a29 29 0 0 1-4-1.5q-1.388 1.712-2.5 0a6.55 6.55 0 0 0-3 3 9.5 9.5 0 0 0-2.5-1.5q3-1 4-4a4.93 4.93 0 0 0-3-.5q-.255-1.983 1-3.5l-3-1.5q.841 2.349-2 4-1.388-1.712-2.5 0-4.947-4.007 1-3l3-5q1.37 1.73 2.5-.5a67 67 0 0 0-6-2.5q-2.55 3.927-6.5 2-3.356 4.736 1.5 7.5-4.461 3.675-6.5-1.5l-1 1q-2.423-1.734 0-4 3.587 1.654 1.5-2 3.33-7.219 7-14a15 15 0 0 1 3.5-3q1.418.608 2 2a10.8 10.8 0 0 1 2.5-3q-2.266-3.506 1-2 3.693-3.83 7 0a12.4 12.4 0 0 1-4 2.5q4.052 2.375 9 3-3.054 3.03-5.5 4.5l-1-2a55 55 0 0 0-4.5 2 4.45 4.45 0 0 0 2 1.5q-3.242 2.646-.5 5.5 1.806-1.455 1.5-3 1.329 1.238 1 3 3.378-1.25 6.5 0l1.5-1.5q-3.917-1.584-9-3 3.83-2.873 7.5.5a7.3 7.3 0 0 1 2-3q1.112 1.71 2.5 0l2 2a26.6 26.6 0 0 0 2-3.5q-8.12-.62-1.5-3.5.926-1.424-.5-2.5-2.686-.623-4-3a12.9 12.9 0 0 0-5-.5v-4q3.566.426 6.5 0 3.082 2.936 6 5l1-1q1.694 2.462 4.5 3a164.4 164.4 0 0 1 31.5 33 12.5 12.5 0 0 1 0 7 626 626 0 0 1-17 29 25.2 25.2 0 0 0 0 10 210.3 210.3 0 0 1 15 37q2.907 3.909 7.5 5.5a1054 1054 0 0 1 31 8 17.8 17.8 0 0 1 4.5 5.5 235.3 235.3 0 0 1 1.5 56q-.425 6.073-5 10.5a1577 1577 0 0 1-34 9q-5.871 2.99-7 9.5a427 427 0 0 1-15 36 22.4 22.4 0 0 0 2.5 8l16 28q1 2.5 0 5-12.877 19.628-31.5 34-2.463-2.371-6-2 .18 4.058-3 2-2.646 2.968-6 1 1.902-9.969-4 0a4.46 4.46 0 0 1-2-1.5q1.654-3.587-2-1.5-2.838-3.816-5.5 0-.959-4.092-3.5-1.5l2 1a11.5 11.5 0 0 0-4.5 3.5 7.3 7.3 0 0 0-2-3h-3l-2-4q-1.207 3.601-2.5-.5-4.098-.597-5.5-4.5-2.668 1.469-5-1-1.256 2.26-3.5 1.5-.957-2.56 0-5.5a8.4 8.4 0 0 0-4 .5q1.73 1.37-.5 2.5-2.574-1.579-3 2-3.5-2-7 0-.76-2.244 1.5-3.5-5.949-2.582 0-5-5.707-1.618-10 2 2.176-.394 4 .5a29 29 0 0 0-1.5 4 4.46 4.46 0 0 0-1.5-2 51.5 51.5 0 0 0-11 7q-1.948-.885-2.5-3l-5 2q-1 1 0 2a14.5 14.5 0 0 1 4.5 4.5 32.4 32.4 0 0 0-.5 7.5l-3-5q-2.167 2.483-5.5 2 .329-1.763-1-3a29 29 0 0 1-4 1.5q5.253 3.016 0 4 1.684 1.565 4 2-2.575 2.338-6 2.5-2.17-3.474-2-7a40.7 40.7 0 0 0-3.5 7q-2.626-2.985-3-7-1.629 3.52-4 0-2.589 1.722.5 3.5a9.5 9.5 0 0 0-1.5 2.5l-6-4-1.5 1.5q1.393 3.75 0 6.5l-3-1.5q1.524-.779 2-2.5-.795-3.548-3.5-6v12q-2.133.142-4.5 1-2 2 0 4-4.12 3.606-7.5-1-1.35 1.905-3.5 3 .914 5.005 3.5 1 4.059 3.359 5.5 8.5-3.143.834-.5 1.5 1.418-.608 2-2a11.4 11.4 0 0 1 2.5 2 45.2 45.2 0 0 1-9 3.5q-.841 2.514-3 4 2.157.328 4 1.5-5.726 5.688-11 0-4.728 4.114-11 4-.255 1.983 1 3.5-1.75.75-2.5 2.5-1.45-1.767-1.5-4l-2.5 3a15.3 15.3 0 0 0-1.5-4.5l2-1a15.3 15.3 0 0 1-4.5-1.5q-2.5 1.26-.5-1.5l-3-1q3.158-1.79 5-5-6.46-1.299-1-3l-4-1q.582-2.402 2-5.5 2.466.32 4.5-1 .54 2.882 2.5 5-.327-8.135 7-4 3.103-.487 1-2.5 2.166-1.171 4 .5-1.817 1.83 0 3.5 2.418 1.08 4.5-.5.59 8.092 3.5-.5-2.24-2.052-4.5-.5a13.8 13.8 0 0 0-2.5-5.5 3.94 3.94 0 0 1 1-2l-5-1a67 67 0 0 0 2-5.5l-1-1a123 123 0 0 0-8 2q2 1.68 1.5 4-1.61-1.17-3.5.5l1 1a17.35 17.35 0 0 1-7 3.5q-4.51-.695-3-4.5a7.3 7.3 0 0 1-3-2l5-1q-4.251-.068-7.5-2.5-2.404.557-4.5 1-1 0-1-1-.51-3.268-3-5.5 1.58-2.082.5-4.5a54 54 0 0 1-10.5-3.5q2.316-.435 4-2a20.6 20.6 0 0 1-6-2q3.972-.148 7.5-.5l4.5 1.5q-1.644 6.286 3.5 1.5 4.763 1.376 8 5 .582-1.392 2-2 5.45 1.617 6.5-4.5l-1-1.5a11.5 11.5 0 0 1-3.5 5l-4.5-5.5 1-1a122 122 0 0 0-13-3.5 12.4 12.4 0 0 1 4-2.5l-2-1q1.386-1.275 0-3a9.3 9.3 0 0 1 2-2.5 3.65 3.65 0 0 0-1-1.5 39.5 39.5 0 0 0 6-4.5q4.555 3.598 9-.5-1.857.116-3-.5 2.318-1.428 5-1 45.388 8.385 88-9 3.261.63 6 0a25.5 25.5 0 0 1 4.5 4q1.679-1.578 1.5-3.5a24.6 24.6 0 0 0 8-3 391 391 0 0 1-7-.5l-1-1q2.15-1.095 3.5-3 2.092 1.972 3-1 2.288.582 5 0 .677 3.644 2.5.5-4.165-3.26.5-1.5a7.3 7.3 0 0 0 2-3q1.5 2 3 0l2.5 2.5q-2 1.5 0 3l-2 1q1.817 1.34 0 2.5-1.427-1.239-3-.5-1.674 3.072 0 6.5-1.388-1.712-2.5 0l-2-2a193 193 0 0 1-4 3 3.65 3.65 0 0 0-1.5-1q-1.773 6.407-8 9l1.5 1q2.582-2.092 6-2 5.423 2.493 11 2a9.6 9.6 0 0 0 3-3l1 2q2.1-3.511 1.5-7a30 30 0 0 1 2 5 32.4 32.4 0 0 0-3 4.5q2.521 5.2 3-.5 1.983-.255 3.5 1-.973-3.499.5-7-3.773-1.05-2-4a32 32 0 0 1-4-2.5q4.135-1.173 7.5 1.5a6.98 6.98 0 0 1 2.5-3.5l-1-1q2.364.228 4 2.5 1.717-1.914 0-4l2-2a22 22 0 0 0-6-7.5l.5-1.5q2.662 3.816 5.5 0a4.46 4.46 0 0 1 1.5 2 9.5 9.5 0 0 1 1.5-2.5q-2.626-1.717-5.5-1.5.89-3.014-.5-6a110 110 0 0 1 7.5-6q.634 2.184 2.5 1.5l-1-1q5.629-1.71 2-5.5a15 15 0 0 0 4-3.5l-1.5-4.5a4.46 4.46 0 0 1-1.5 2 10.8 10.8 0 0 0-3-2.5q3.928-3.961 5.5-9.5a14.5 14.5 0 0 1 4.5-4.5q1.272-1.782 0-4.5 9.695-19.853 15-41v4a66.5 66.5 0 0 0 11 0q1.61-4.86 6-7.5l-2-1 4-2q-1.392-.582-2-2a15.9 15.9 0 0 0 2.5-4.5 32 32 0 0 1 2.5 4q4.384-1.959 8.5-3 2.954 3.723 3.5 7.5a4.46 4.46 0 0 0-2 1.5q1.797.66 3.5 1a15.3 15.3 0 0 1 4.5-1.5 14.7 14.7 0 0 1-5-1.5q1.712-1.388 0-2.5 3.845-1.377 6.5 1.5 1.833-3.294 5.5-4.5-1.423-.926-2.5.5a9.5 9.5 0 0 0-2.5-1.5q4.261-2.647 8.5.5a9.5 9.5 0 0 1 2.5-1.5q-2.316-.435-4-2 .142-2.133 1-4.5a13.3 13.3 0 0 0 4.5 3l2 6a7.3 7.3 0 0 0 2-3l1 1a55 55 0 0 0 4.5-2 4.46 4.46 0 0 0-2-1.5q2.218-1.79 4-1.5-4.29-2.189-6-5.5a12.4 12.4 0 0 0 4-2.5q-2.78-1.89-5.5 0a73.5 73.5 0 0 1-11-9 23 23 0 0 1-2-5l-1 1q-1.134-3.464 1.5-6-2.038-2.709 1-4.5a15.4 15.4 0 0 1-6-3 58 58 0 0 1-9-.5q-3.084 2.279-7 2.5 2.184.634 1.5 2.5a37 37 0 0 0-4.5-2 46.5 46.5 0 0 1-10 .5q-1.426 1.077-.5 2.5 3.952-4.508 6 1 2.72-1.89 5.5 0-4.111 4.059-9 4.5 1.98 3.322-2 4.5-3.41-1.168-5.5-4-2.909 1.952-3.5-2l2-8q-4.072-1.459-2.5-7 .981 1.794 1.5 0a15.4 15.4 0 0 1-1-7h-3q.255-1.983-1-3.5l4-1a20.6 20.6 0 0 0-6-2l1-1a29.5 29.5 0 0 1-2.5-4.5q-.598.343-.5 1a148.3 148.3 0 0 0-13-25 279 279 0 0 0-12-19 4.93 4.93 0 0 1 .5-3l1 1q1.158-2.023 3.5-2.5-.032-4.025-1-8.5-2.464-.03-4 2-3.152.031-6.5-1-1.137-3.404.5-6.5-1.23-4.371-3-.5a3.65 3.65 0 0 0 1 1.5q-1.65.648-2-1.5.135-2.888 3-3.5a500 500 0 0 1-1.5-11.5 26.6 26.6 0 0 1-3.5-2q2.069-2.044-.5-3l-1.5 1q1.239 1.426.5 3l-2.5-3q-1.817 1.16 0 2.5l-1.5.5q-7.489-6-14 1l-3-5q-3.32 6.024-3 0a9.6 9.6 0 0 1-3 3q-1.853-1.672-3.5 0a24.2 24.2 0 0 1-6-8.5q-1.863-.466-3 1.5-2.089-2.044-5-2.5 1.26-2.5-1.5-.5-7.282-.265-12.5-5a3.65 3.65 0 0 1 1-1.5q-2.66-1.321-2-3.5-1.329 1.238-1 3-2.436-.21-3.5 2a7.25 7.25 0 0 0-2.5-2 214 214 0 0 1-5 4q-3.844-.356 0-1.5-1.144-1.416-3-1.5a82 82 0 0 1-7.5 1 13.97 13.97 0 0 1-5-6q-1.5 2-3 0-1.565 1.684-2 4-.939-3.737-2.5 0a26.6 26.6 0 0 1-2-3.5q2.724-6.998-3-2.5a67 67 0 0 1-2.5 6l-1-3q-4.072 6.336-8.5 1-2.031 2.526-5 1.5 3.648-1.63-1-1.5v4q-2.466.32-4.5-1-1.887 3.833-5.5 2-1.656 1.697 1 2.5-1.374.417-2 1.5-74.631 21.133-101 94a186 186 0 0 0-2-3q3.492-3.111-2-3a9.1 9.1 0 0 1-1 5q.657 1.509 2 0 3.504 2.36 0 4 1.032 2.966-1 6-1.388 1.712-2.5 0l-1 2q-.634-2.184-2.5-1.5l1 1q-6.27 3.726-9.5 10.5l-1-4a7.25 7.25 0 0 1-2.5 2l-2-5q.202 2.221-1 5a4.46 4.46 0 0 0 2 1.5q-3.17.494-5-2.5a3.65 3.65 0 0 1 1-1.5q-1.75-.75-2.5-2.5-1.076 1.426-2.5.5 2.125-4.24 4.5-.5a11.3 11.3 0 0 1 3.5-1.5 119 119 0 0 1-9-3q1.424-.926 2.5.5.75-2.75 3.5-3.5a21.4 21.4 0 0 0-5 0q1.71-1.112 0-2.5 2.259-1.87 4.5 0a4.93 4.93 0 0 0 .5-3 12.9 12.9 0 0 1-5-.5q-.264-2.538-1.5-4.5a28 28 0 0 1-1.5 5q.315.879 1 1.5l-4 1a20 20 0 0 0 4 3.5q-5.915.326-12 2.5 2.882.54 5 2.5-1.71 1.388 0 2.5l-3 1q.825 2.097 1 4-3.472 2.052 0 2.5 3.135-3.763 5.5 1a20.9 20.9 0 0 0 6.5-3 4.46 4.46 0 0 1 2 1.5q-5.99.645-2 4.5a10.3 10.3 0 0 1-4 1.5q2.656.803 1 2.5-3.204-1.458-3.5-5-2.426 1.554-.5 3.5-2.947.936-5-1.5-3.145 1.68-1 4.5a20.2 20.2 0 0 0-6 1.5l-1 4-2.5-3q-1.166 3.301-3.5 0a6.8 6.8 0 0 1 3-1.5l-1-1q4.307-.177 8-2a8.2 8.2 0 0 1-4-2.5q-1.963 3.587-3 0-.105-3.249 2-1 6.95-3.039.5-6-2.42 3.415-6.5 4.5.44 3.462-2.5 6.5a413 413 0 0 1 2-12 385 385 0 0 0-13.5 4q-2.649.099-3-2.5a28 28 0 0 1 3.5-4.5q.977 2.603-.5 5 .519 1.794 1.5 0 .456-2.911 2.5-5a10.8 10.8 0 0 1-2.5-3 6.98 6.98 0 0 1-3.5 2.5l1 1q-11.37.305-1-4.5a3.65 3.65 0 0 0-1-1.5q5.519-7.363 13.5-2.5 8.11-1.826.5-3.5a51 51 0 0 1 4-2.5q7.995-1.954 15.5-6 6.262-20.01 16.5-38 1.933 1.501 4-.5l-1-1 3-1q-6.44-1.85-2-6.5 1.911 1.034 0 2.5 3.657 1.023 6.5-1.5 2.373 2.293 5.5 1.5l-2-1a31 31 0 0 0 4-4.5q-1.694-3.044 1.5-1l3.5-3.5q-1.116-4.56-4-9.5 6.19-1.563 2-6a9.3 9.3 0 0 0 2-2.5q-2.4-2.622-6-3.5a10.3 10.3 0 0 1 4-1.5 22.2 22.2 0 0 1-6-2.5q1.509-1.343 0-2a110 110 0 0 0-6.5 2l-1.5-1.5a23 23 0 0 1 5-2q.725-5.193 3.5-1.5a23 23 0 0 1 2-5q1.206 1.956 3.5 2a21.3 21.3 0 0 1 7-1q-.393 2.217 1 4 1.388-1.712 2.5 0 .254-3.256-2.5-5.5a16.2 16.2 0 0 1 1.5-3.5 14.8 14.8 0 0 0 4.5 3 3.65 3.65 0 0 1-1 1.5 6.98 6.98 0 0 1 2.5 3.5q1.716-3.626 5-2 2.526-3.301 6-2 2.712-2.844 6.5-1.5a392 392 0 0 1-12.5 5.5q-1.032 1.248.5 2 3.601-4.369 4 1 5.626.73 11 1 .255-1.983-1-3.5 3.066-.072 6 1.5 4.056-5.297-3-6.5 1.17-1.61-.5-3.5l-2 2q-1.756-2.09-4.5-2.5 2.21-1.065 2-3.5-6.811-1.096-12 3-3.505-2.106-6.5-3l-2 2a16.2 16.2 0 0 1-3.5-1.5q2-1 0-2l2-1a32 32 0 0 1-4-3.5 28.7 28.7 0 0 0-1 5 4.46 4.46 0 0 0 2 1.5q-2.744.41-4.5 2.5-2-2-4 0a11.5 11.5 0 0 0-3.5-4.5q8.286-5.68-1-3l1 1a39 39 0 0 0-4.5 4.5 7.25 7.25 0 0 0-2.5-2q-1.794.519 0 1.5-4.46 2.26-9 1 1.5 2.5 4 4a6.98 6.98 0 0 0-2.5 3.5q-1.25-2.25-3.5-3.5 1.255-1.517 1-3.5a38 38 0 0 0-7.5 3q1.755-4.073 4.5-8a108.8 108.8 0 0 1 17-18 159 159 0 0 0 12-9.5 16.25 16.25 0 0 1 8 0l28 17q4.5 1 9 0a187.4 187.4 0 0 1 38-15.5q-.045 1.496 1.5 2 2.09-1.672 4.5-1.5-2.64 1.448-1 3.5 5.364-.637 10.5 0l1.5-1-2-2a601 601 0 0 1 3-3.5q-1.61-2.124 0-4a9.5 9.5 0 0 1-1.5-2.5q-2.57 2.138-4-1l-1 3q-2.406-.852-2-3a35.6 35.6 0 0 0 6-3 67 67 0 0 1 3.5 5q.66-1.797 1-3.5a26 26 0 0 0 8.5-.5l1.5 1-4.5 5a4.46 4.46 0 0 0-1.5-2q-1.01 2.14-4 4.5a4.45 4.45 0 0 0 2 1.5 20 20 0 0 1 4.5-3q1.757 1.26 3.5 2.5-.645 1.38-1 2.5-2.022-2.942-4-.5a59.7 59.7 0 0 1 9 5q-3.198 2.546-4 6.5 4.232.058 8 2-1.726 1.846-3.5 0-.738 1.574.5 3a601 601 0 0 1-3 3.5l.5 1.5q3.771-.882 6-4a347 347 0 0 1 5 5l1.5-1.5a25.5 25.5 0 0 1-4-4.5q.762-3.605 3.5-2 2.593-2.901 6 0 1.651-2.84 4-2a15.3 15.3 0 0 1 1.5-4.5 4.45 4.45 0 0 1-2-1.5q2.827-1.046 1-3l4-2a3.65 3.65 0 0 0-1-1.5q-2.377-.127-4-.5 2.683-2.3 6-3 1.413 6.413 8 8-.957-2.94 0-5.5-2.298-1.05-3-3.5a16.2 16.2 0 0 0 4.5-5q1.843 3.67 4.5.5-5.795-2.72 1-3.5a8.4 8.4 0 0 1 .5-4l1.5 1.5q-1.846 1.775 0 3.5 4.462-5.656-2-9a7.5 7.5 0 0 1 5-.5 11.5 11.5 0 0 0-5-3.5q-1.712-1.388 0-2.5 2.837-.463 4 2.5 3.058-1.166 2-3.5 2.52-.051 4.5-.5l.5 1q-5.355.921-1 4 2.571-1.662 2 2 4.058-.18 2 3 4.266 1.046-1 3.5 2.26 1.256 1.5 3.5l-1-1a12.4 12.4 0 0 0-2.5 4q2.252 3.685 5 0 4.98 1.892 1 5 1.694 3.045-1.5 1-1.048 2.36 1 4 2.159-2.27 4.5-1-1.237 1.329-3 1 .785 10.034 9.5 5-.873-7.932 2 0a58 58 0 0 1 6.5 0 9.4 9.4 0 0 1-3 3 13 13 0 0 1 4.5 4l1.5-1.5q-2-1 0-2-3.279-.906-.5-3.5 1.979 3.77 6.5 7a7.3 7.3 0 0 1 3-2q2.81-.027 1 1.5a23 23 0 0 0 5 2l-1 1a4.45 4.45 0 0 1 2 1.5q-1.113 2.774-3 2a4.46 4.46 0 0 0 1.5 2l3-3q5.237 2.592 8.5-2"/>
  <path fill="#46667f" d="M106.5 155.5q-4.44 4.65 2 6.5l-3 1 1 1q-2.067 2.001-4 .5 1.488-4.918.5-10a713 713 0 0 1-18-31q-1-2.5 0-5 3.264-4.543 6.5-9a45.4 45.4 0 0 1 8-8q-2.745 3.927-4.5 8a38 38 0 0 1 7.5-3q.255 1.983-1 3.5 2.25 1.25 3.5 3.5a6.98 6.98 0 0 1 2.5-3.5q-2.5-1.5-4-4 4.54 1.26 9-1-1.794-.981 0-1.5a7.25 7.25 0 0 1 2.5 2 39 39 0 0 1 4.5-4.5l-1-1q9.286-2.68 1 3a11.5 11.5 0 0 1 3.5 4.5q2-2 4 0 1.756-2.09 4.5-2.5a4.46 4.46 0 0 1-2-1.5 28.7 28.7 0 0 1 1-5 32 32 0 0 0 4 3.5l-2 1q2 1 0 2a16.2 16.2 0 0 0 3.5 1.5l2-2q2.995.894 6.5 3 5.189-4.096 12-3 .21 2.435-2 3.5 2.744.41 4.5 2.5l2-2q1.67 1.89.5 3.5 7.056 1.203 3 6.5-2.934-1.572-6-1.5 1.255 1.517 1 3.5-5.374-.27-11-1-.399-5.369-4-1-1.532-.752-.5-2a392 392 0 0 0 12.5-5.5q-3.788-1.344-6.5 1.5-3.474-1.301-6 2-3.284-1.626-5 2a6.98 6.98 0 0 0-2.5-3.5 3.65 3.65 0 0 0 1-1.5 14.8 14.8 0 0 1-4.5-3 16.2 16.2 0 0 0-1.5 3.5q2.754 2.244 2.5 5.5-1.112-1.712-2.5 0-1.393-1.783-1-4a21.3 21.3 0 0 0-7 1q-2.294-.044-3.5-2a23 23 0 0 0-2 5q-2.775-3.693-3.5 1.5a23 23 0 0 0-5 2l1.5 1.5a110 110 0 0 1 6.5-2q1.509.657 0 2a22.2 22.2 0 0 0 6 2.5 10.3 10.3 0 0 0-4 1.5q3.6.878 6 3.5a9.3 9.3 0 0 1-2 2.5q4.19 4.437-2 6 2.884 4.94 4 9.5l-3.5 3.5q-3.193-2.044-1.5 1a31 31 0 0 1-4 4.5l2 1q-3.127.793-5.5-1.5-2.843 2.523-6.5 1.5 1.911-1.466 0-2.5"/>
  <path fill="#0c0c17" d="M317.5 120.5q4.035 4.297 10 6.5-9.374 1.213-18.5-.5-3.065 3.479-7.5 2.5 1.426-1.077.5-2.5a7.25 7.25 0 0 1-2.5 2q-1.536-2.03-4-2a12.9 12.9 0 0 1-.5 5q-.539-4.567-2-1a4.93 4.93 0 0 1-.5-3q-8.966-.63-17.5 0-8.625-.078-16.5-3-1.773 3.218-4.5 0a65 65 0 0 1-2.5 5q-1.083.627-1.5 2-.476-2.701-2-1a12.5 12.5 0 0 0 0 7l1-1q.724 1.422.5 3a4.93 4.93 0 0 1-3-.5 13.24 13.24 0 0 0-3-5q1.701-1.524-1-2 2.487-1.088 1.5-3.5-2.103 3.71-4.5 0a32.4 32.4 0 0 1-6 1.5q-1.884.625-2 2.5-53.211 16.212-78 66-1.257.513-1 2 3.326 2.37 8 3a14.8 14.8 0 0 0-4.5 3 147 147 0 0 0-10-3q-.77 3.031-3.5 4.5l1 1a14.5 14.5 0 0 1-5 4q2.708 2.162 6 .5a17.8 17.8 0 0 1-2 8 20.2 20.2 0 0 1-1.5-6q-.102 4.229-3.5 6.5l2 2a39.5 39.5 0 0 1-5 5.5q4.644 1.264 5.5-4a67 67 0 0 0 1.5 5.5 9.3 9.3 0 0 1-2 2.5 9.1 9.1 0 0 1 1 5q-5.11-.562-1.5 3 .834-3.143 1.5-.5-.397 3.227-3 5l2 1q-2.5 1-5 0 1.817-1.34 0-2.5-3.015 2.507-7 2a8.4 8.4 0 0 1-.5 4q-7.819-4.685-.5-11-2-1.68-1.5-4 2.046 1.137 3.5-1.5-3.482-3.608 2-5a4.93 4.93 0 0 0-3-.5 4.93 4.93 0 0 0-.5-3q-1.517 1.255-3.5 1a531 531 0 0 0 4-20q26.369-72.867 101-94 45.977-10.751 89 8"/>
  <path fill="#0b0c13" d="M91.5 109.5a2195 2195 0 0 0-6.5 9q-1 2.5 0 5a713 713 0 0 0 18 31q.988 5.082-.5 10-10.238 17.99-16.5 38-7.505 4.046-15.5 6a118 118 0 0 0-23 6.5q-4.23 4.938-4 11.5-3.135-.075-4 3 1.584 5.957 0 12a475 475 0 0 0-7.5-1q-1.905 2.107-1.5 5-2.217.393-4-1 5.534-3.907 0-7a11.1 11.1 0 0 1-3.5 2q-2.469-2.461-3 1-2.082-1.58-4.5-.5 3.886 5.117-2 2 1.255-1.517 1-3.5 5.404-.303 10-3 6.834 1.26 12.5 5 2.442-1.978-.5-4 2-1.5 0-3 3.633-2.322 0-5a4.46 4.46 0 0 1 2-1.5l-1-3q1.684-1.566 4-2a4.93 4.93 0 0 0-3-.5q-.393-2.217 1-4a3.65 3.65 0 0 1 1.5 1 26.7 26.7 0 0 1 1.5-6.5 31.8 31.8 0 0 1 10-3.5 4.93 4.93 0 0 1 .5-3 18 18 0 0 0 3.5 2q1.505-3.063 4-1a40 40 0 0 1 4.5-4q3.359 4.696 7.5 1-.516-3.804-3-6.5a7.3 7.3 0 0 0 3-2q-1.926-1.946.5-3.5a4.45 4.45 0 0 0 1.5 2q4.3-1.942 8.5 0a11.14 11.14 0 0 0 3.5-5.5q-7.9-4.285 1-4a17.2 17.2 0 0 1 4-5.5 4.46 4.46 0 0 0-2-1.5 30 30 0 0 1 5-7.5q-4.146-4.514 2-6.5-1.22-2.827-4-2a39 39 0 0 0-4.5 4.5 3.65 3.65 0 0 0-1.5-1 15 15 0 0 1-3.5 3 14.4 14.4 0 0 0-5.5-2.5 23.6 23.6 0 0 0 3-3.5l1 2q3.95-1.924 0-4 7.533-3.18 0-2.5-2.437 1.28-1 3-2.45.74-5 .5a4.93 4.93 0 0 1 .5-3q1.34 1.817 2.5 0a90 90 0 0 1 5-7.5 4.46 4.46 0 0 1-2-1.5q3.167-2.022 5.5 1 .582-1.392 2-2 5.91 3.847 3.5-3-3.615-.631-5.5-4-.5 2.32 1.5 4-2.78 1.89-5.5 0-3.031 4.18-4.5-1-2.15 2.58-2.5 6a10.3 10.3 0 0 0-1.5-4 11.1 11.1 0 0 1-3.5 2q-4.377-1.491-.5 1.5a9.5 9.5 0 0 0-2.5 1.5 6.8 6.8 0 0 0-1.5-3q-2.07 3.286-6 4l1 1q4.305-.933 8.5-2 1.9 2.886 0 5l-7-2a4.45 4.45 0 0 0-1.5 2q3.953 2.346-.5 4-2.242-2.415-.5-5-4.223-4.136-2 1.5-1.5 1-3 0-.795-4.251-3-7.5a10.8 10.8 0 0 1-3 2.5q7.014 6.441-2 9 2.886.269 5 .5a7.25 7.25 0 0 1-2 2.5q6.228 5.099-1 9 3.171.636 2.5 3.5-3.973-2.183-5.5-6.5a3.94 3.94 0 0 1 1-2q5.974.413 0-3 1.425-1.077.5-2.5-3.579 3.987-6-1-2.225 2.429-3.5.5a29.2 29.2 0 0 1 10-8 37 37 0 0 1-2-4.5q1.942-4.299 0-8.5 3.416-3.063 5-7.5.105 2.667 1 5.5-6 1 0 2-5.184 2.023-3.5 7.5 1.517-1.255 3.5-1-.39-4.597 3-7.5l-1-1q2.342-.282 2 2.5 2.548.18 5 1l2-1q-1.238-1.329-3-1v-3q1.983.255 3.5-1 3.522 3.65 6.5 0-1.497-3.792-2.5 0a7.3 7.3 0 0 0-2-3q-2.5 1.26-.5-1.5a29 29 0 0 1-4-1.5q-1.954 1.827-3-1a15 15 0 0 0-3.5 3l-5-3q-.552 2.115-2.5 3-3.152.031-6.5-1-.987 2.412 1.5 3.5-2.594 2.779-3.5-.5-2.81 2.822-6.5 0 1.638-1.996 4-2.5l-3-1v-4q2.905-3.653 5.5-.5 3.05-1.864 2.5-4.5 2.288-1.513 5-1.5-.329 1.762 1 3l4-2a6.8 6.8 0 0 1 1.5 3 26.6 26.6 0 0 0 3.5-2l-2-1q3.204-1.458 3.5-5 1 2 2 0 .466 1.863-1.5 3 1.914 1.718 4 0 1.851 2.847-1 5a15.7 15.7 0 0 0 4 2q2.244 5.665 5 0a3.65 3.65 0 0 1 1.5 1q1.062-4.152 4.5-2.5-2.049-3.657 1.5-1.5 1.757-1.26 3.5-2.5-4.497-4.212 2-4 2.178-4.117 6-7 1.405-1.038 2 .5"/>
  <path fill="#456482" d="M106.5 155.5q-4.674-1.811-1-5-2.827-1.046-1-3-1-4-5-5a6.8 6.8 0 0 1-1.5-3l-1 1q-.165-3.522-3.5-4.5l1-3a6.8 6.8 0 0 1-3-1.5q.519-1.794 1.5 0 1.217-5.465 6.5-7-3.525-.768-6-3a55 55 0 0 1 4.5-2 15 15 0 0 0 3.5 3q.253-1.346 1-3l4 3q2.799-1.594 1.5 2a9.5 9.5 0 0 1-2.5 1.5 20.2 20.2 0 0 1 6 1.5 3.65 3.65 0 0 1-1 1.5q2.098 4.596 7 6l-4 1q1.701 1.524-1 2 4.423.662 9 3.5-1.726 1.846-3.5 0-1.647 2.201-4.5 2.5l1 1q-2.316.434-4 2 2 1.5 0 3l2 2q-4.166.092-6 3.5"/>
  <path fill="#43627a" d="M370.5 158.5q-17.48-19.471-40-32.5a55.5 55.5 0 0 0-13-5.5q-43.023-18.751-89-8 .626-1.083 2-1.5-2.656-.803-1-2.5 3.613 1.833 5.5-2 2.034 1.32 4.5 1v-4q4.648-.13 1 1.5 2.969 1.026 5-1.5 4.428 5.336 8.5-1l1 3a67 67 0 0 0 2.5-6q5.724-4.498 3 2.5a26.6 26.6 0 0 0 2 3.5q1.561-3.737 2.5 0 .435-2.316 2-4 1.5 2 3 0a13.97 13.97 0 0 0 5 6 82 82 0 0 0 7.5-1q1.856.084 3 1.5-3.844 1.144 0 1.5 2.49-1.93 5-4a7.25 7.25 0 0 1 2.5 2q1.064-2.21 3.5-2-.329-1.762 1-3-.66 2.179 2 3.5a3.65 3.65 0 0 0-1 1.5q5.218 4.735 12.5 5 2.76-2 1.5.5 2.911.456 5 2.5 1.137-1.966 3-1.5a24.2 24.2 0 0 0 6 8.5q1.647-1.672 3.5 0a9.6 9.6 0 0 0 3-3q-.32 6.024 3 0l3 5q6.511-7 14-1l1.5-.5q-1.817-1.34 0-2.5l2.5 3q.739-1.574-.5-3l1.5-1q2.569.956.5 3a26.6 26.6 0 0 0 3.5 2q.736 6.166 1.5 11.5-2.865.612-3 3.5.35 2.148 2 1.5a3.65 3.65 0 0 1-1-1.5q1.77-3.871 3 .5-1.637 3.096-.5 6.5 3.348 1.031 6.5 1 1.536-2.03 4-2 .968 4.475 1 8.5-2.342.477-3.5 2.5l-1-1a4.93 4.93 0 0 0-.5 3"/>
  <path fill="#0c0c17" d="M511.5 125.5v292q-.926.166-1.5 1 .394-2.176-.5-4l-4 3q.519 1.794 1.5 0 .684 1.866-1.5 2.5a4.46 4.46 0 0 1 2 1.5 10.3 10.3 0 0 1-4 1.5q1.972 2.092-1 3 6.64 0 1.5 3.5-4.059-1.808-5.5-6a4.46 4.46 0 0 0-2 1.5q2.298 1.05 3 3.5-1.884.795-4.5 0 .223 1.988-.5 3.5 6.865-1.096 3 4.5-1.289-5.76-5 0a7.3 7.3 0 0 0 2 3q-1.817 1.83 0 3.5-1.392.582-2 2 4.097 6.335-1 2-4.486-2.284-9-1.5 1.818 3.635 6 3 .79 4.962-4 6.5 1.81 1.527-1 1.5l-5-3-1 1q1.798 2.894 6 5.5-3.224 4.056-6.5.5-2.57-.18-5.5.5a14.6 14.6 0 0 1 6-4q-4.198-.658-3-4-4.324-2.384-4.5-7.5-4.694 4.322-.5 9-1.237 1.329-3 1 .17-3.823-2-7 4.169-1.76 2-5.5 2.719.07 5-.5a4.46 4.46 0 0 1 1.5 2q4.102-4.263 6-10a32.4 32.4 0 0 1 4.5 3q-3.091 7.655 4.5 5 2.577 5.874 3.5-1a7.25 7.25 0 0 0-2-2.5q3.587-1.036 0-3 2.21-1.064 2-3.5-4.254.447-1.5-2 4.25 1.75 2.5-2.5a4.46 4.46 0 0 0 2-1.5 133 133 0 0 1-8-4.5 32.5 32.5 0 0 1 6-2.5l-1-2q2.547-5.736 4.5 0 1.5-2 3 0 1.67-1.89.5-3.5a4.93 4.93 0 0 1 3-.5q.412-7.08-2.5-1-5.548-4.914 1.5-5a4.93 4.93 0 0 0-.5-3l-1 1q-3.295-2.295-2.5-5.5-7.597 2.405-5.5-5.5.41-2.744 2.5-4.5l-5-3q2.115-.552 3-2.5-2.634.21-5-1.5 1.905-1.35 3-3.5 1.5 2 3 0a22.5 22.5 0 0 1 3-4q-1.298-1.624-3-.5-1.53 2.333-4 3.5a19 19 0 0 0-6-1q-1.605-5.058-5.5 0-.908-2.972-3-1-2.157-4.167 0-8 3.135 3.763 5.5-1-.656-1.509-2 0l-2.5-3-1 1q-2.415-15.68-2.5 0h-4q-.144-5.715 0-10.5-1.905-1.35-3-3.5-2.5 1.5-4 4-.747-1.654-1-3-5.401 2.963 0 4.5-3.422 2.777 0 5-2 2 0 4-2.28 3.894-2.5 8.5l-4.5 4.5q4.322 3.35 6-2 1.248-1.032 2 .5l-2 2q2.087 3.654-1.5 2-.908 2.972-3 1-2.236 2.256-5.5 2.5a20.5 20.5 0 0 0 4.5 2.5q.107 5.805-2.5 1.5l1-1q-3.03-1.825-6-.5-2.678-3.633-5 0-1.985-5.223 4-5.5-3.792-1.003 0-2.5 2.026 5.968 4 0-3.597-2.097-5-6a6.85 6.85 0 0 0-4-1q-.014-2.712 1.5-5l1 1q.75-2.75 3.5-3.5-1.554-2.426-3.5-.5-.539-4.567-2-1-2.332-2.469-5-1-.348-5.4-2-11-.843 6.895-3.5 1a10.3 10.3 0 0 0-4-1.5 10.3 10.3 0 0 0 4-1.5q-4.972-1.724-7-6.5 1.068-2.163 3.5-2.5 4.28 3.888 8.5 0a35.6 35.6 0 0 0-4.5-4l-1 1q-3.077-4.341 2-2 .942-4.116-3-6-1-1.5 0-3 4.611-4.185 10.5-6.5-2.911-1.114-5.5.5.192-2.917-.5-5.5 3.898 1.958 8.5 3.5 2.96.286 4.5-2l-1.5-1q-3.846 4.214-6-1l-1 1a6.98 6.98 0 0 0-3.5-2.5q1.75-.75 2.5-2.5 2.05 1.536 2.5-1.5-.483-3.782-4-4.5 1.129-6.51 7-9.5a1577 1577 0 0 0 34-9q4.575-4.427 5-10.5 1.346-1.771 1.5-6a14.7 14.7 0 0 0 1.5 5q1.509-.656 0-2l4-12-.5-1q-4.03 4.207-3-1l1 1q2.754-2.447-1.5-2-.347-6.789 4-12-1.78-.08-4-1 4.203-3.356 8 0a3.65 3.65 0 0 1-1 1.5q4.178 3.387 2-1.5a4.46 4.46 0 0 1 2-1.5q-1.5-2.5-4-4l2-1q-1.974-2.967 1.5-4.5 1.902.174 4 1 4.708-6.272-2.5-2-2.881-7.488-3 0-2.893.404-5-1.5 1.608-1.926 4-1-2.289-2.83-6-3l3-2.5a4.46 4.46 0 0 0-2-1.5l1.5-.5q1.864 3.395 5.5 2.5-2.667-3.202-2-7.5a4.93 4.93 0 0 0 3-.5q-3.338-3.005-5 1.5-4.505-1.662-1.5-5 1.517 1.255 3.5 1-.538-3.399 2-5.5a4.93 4.93 0 0 0-3-.5v3a17.7 17.7 0 0 1-6 .5q2.288-1.513 5-1.5a4.93 4.93 0 0 0-.5-3q-5.117 3.886-2-2 2.906.481 4.5-3-1.346-.253-3-1 1.712-1.388 0-2.5 3.827-2.274-1-2.5-.699 2.551 0 4.5-2.883 5.019-2 0l-2-1a18 18 0 0 0 2-3.5q-4.453-1.752-1-4-1.239-1.426-.5-3 2.034 1.32 4.5 1-.255-1.983 1-3.5l-1.5-.5q-1.517.588-1.5 2a3.65 3.65 0 0 1-1.5-1 15.3 15.3 0 0 1-4.5 1.5q1.392.582 2 2-2.229.377-3 4 3.156 2.754 1 6.5a9.4 9.4 0 0 0-3-3q-6.459 2.971-9-3.5.27-3.362 2.5-1.5 1.377-3.845-1.5-6.5l1-1q-2.245-2.807-6-3a12.9 12.9 0 0 1 5-.5q-.101-4.899 5-4.5-1.255-1.517-1-3.5 5.115 1.599 9.5 0 1.22-3.603-.5-7a124 124 0 0 0-7-4.5q4.229-4.08-1-7h4q-1.268-2.337 2-3l-3-2.5 1.5-1a57 57 0 0 0 6.5 1.5q1.712 1.112 0 2.5.548 2.103 2.5 3 4.769-1.889 6.5-5-2.103-2.014 1-2.5-2-1.5 0-3-2.467-4.388-6-.5a10.8 10.8 0 0 0-3-2.5 21.4 21.4 0 0 1 5 0 3.65 3.65 0 0 1-1-1.5 10.3 10.3 0 0 1 4-1.5q.841-2.514 3-4-2.412-.987-3.5 1.5-3.293-3.934 1.5-6 1.558 5.935 3 0a330 330 0 0 0-5-5.5 4.46 4.46 0 0 1 2-1.5 12.4 12.4 0 0 1 2.5 4 7.3 7.3 0 0 1 2-3q3.039 2.396 7 3 2.399-.856 3.5-3"/>
  <path fill="#0c0c18" d="M444.5 125.5q1.185 1.663 1.5 4a11.3 11.3 0 0 0 3.5 1.5q-3.587 1.036 0 3 3.101.804 5.5-1.5 1.03 3.102-.5 6l1.5 3q2.846-3.248 6.5-2a10.8 10.8 0 0 0-2.5 3q-2.52-1.655-4.5 1 4 1.5 0 3-2.651-6.977-8.5-3-2.5-1.26-.5 1.5a4.46 4.46 0 0 1-2 1.5q-1.137-1.966-3-1.5 3.054 2.729.5 5.5-1.565-1.684-2-4-1.51 7.335 5.5 5.5a3.65 3.65 0 0 0-1 1.5q5.817 2.851 0 5.5a4.46 4.46 0 0 1 2 1.5 15 15 0 0 1-3 3.5 4.46 4.46 0 0 0 2 1.5 26 26 0 0 0 3.5-5q2.888 4.185 6 1l1.5.5q-2.043 3.659-5.5 1.5a20.5 20.5 0 0 0-2.5 3.5q2.176-.394 4 .5a14.7 14.7 0 0 1-5 1.5q6.09 4.839 8-3.5a18.3 18.3 0 0 0 6-4q3.154 2.346 2.5 6l-1-1a14.8 14.8 0 0 1-6.5 2q-.959 5.439 4 5.5-2.64-1.448-1-3.5 1.702.904 3 1-1.793 2.2 0 4.5a9.6 9.6 0 0 1-3 3q2.184.634 1.5 2.5-3.197-1.92-6.5 0-.894-1.824-.5-4-1.112 1.712-2.5 0-2.8 4.094-3-1-4.794.696 0 4.5-4.567.539-1 2-4.341.673-8-2 2.115-.552 3-2.5-2.05-.005-4.5-2l-1 1q-.76-2.244 1.5-3.5-1.457-1.806-3-1.5.968-2.898 4-3.5l-6-5 2-1q-3.301-1.237-5.5 1.5-1.36-4.334-5.5-6.5 2.972-.907 1-3a8.4 8.4 0 0 1 4-.5q-.213-5.584 4-2.5-.903 2.856 1.5 5.5l1.5-1.5-2-6q2.487-1.088 1.5-3.5-1.974 3.792-3.5 0 4.011-1.499 2-5 .803-2.656 2.5-1a6.98 6.98 0 0 1 3.5-2.5 3.65 3.65 0 0 1-1-1.5l6-2.5q-2.595-2.779-3.5.5-1.305-.912-1.5-2.5 2.668-3.667 4-6.5"/>
  <path fill="#d9a051" d="M279.5 199.5q-63.255.498-126-1 24.789-49.788 78-66 4.857-1.343 9.5 0 19.267 33.541 38.5 67"/>
  <path fill="#d8a051" d="M358.5 180.5h1q12.615 14.218 17.5 33 11.615 38.337-1.5 76-39.258.497-78-1z"/>
  <path fill="#111118" d="M317.5 120.5a55.5 55.5 0 0 1 13 5.5q22.52 13.029 40 32.5a279 279 0 0 1 12 19q-2.558-.882-5-1a4.46 4.46 0 0 1 2-1.5q-1.834-4.834-7-5l3-1-1-1a26.7 26.7 0 0 1-7-1.5q5.027-2.108.5-4a1701 1701 0 0 0-8-12q-1.846 7.794 3.5 13.5-4 1 0 2a48 48 0 0 0-5 2.5q.647 1.19 1 2.5-4.764 3.99-1 9.5l-61 108q-1.258.512-1 2 31.244 1.248 63 1.5a32.6 32.6 0 0 1 7 3l-1 1-27 1a309 309 0 0 1 25 1.5q-59.256-.498-118 1l36 64q-3.096-.393-4-3.5-4.689-1.524-7 2.5-30.21-51.405-60.5-103l-39.5 67q31.424 37.216 80 43 .166.926 1 1.5a8.4 8.4 0 0 1-4 .5q.059 2.788-2.5 4 .669-4.748-4.5-2-1.24-2.493-3.5-4 .116 1.857-.5 3-3.745-6.515-10.5-4a311 311 0 0 0-18.5-10 96 96 0 0 1-19 1v4q-4.443.574-3-3-3.5-2-7 0 3.744 2.487 9 5l2 3a4.46 4.46 0 0 0 1.5-2q1.268 4.368 5 3 1.638 2.447 2.5 5-68.865-36.628-76.5-115-.75-10.488-.5-21a113 113 0 0 1 2-12q1.983.255 3.5-1 .724 1.422.5 3a4.93 4.93 0 0 1 3 .5q-5.482 1.392-2 5-1.454 2.637-3.5 1.5-.5 2.32 1.5 4-7.319 6.315.5 11a8.4 8.4 0 0 0 .5-4q3.985.507 7-2 1.817 1.16 0 2.5 2.5 1 5 0l-2-1q2.603-1.773 3-5-.666-2.643-1.5.5-3.61-3.562 1.5-3a9.1 9.1 0 0 0-1-5 9.3 9.3 0 0 0 2-2.5 67 67 0 0 1-1.5-5.5q-.856 5.264-5.5 4a39.5 39.5 0 0 0 5-5.5l-2-2q3.398-2.271 3.5-6.5a20.2 20.2 0 0 0 1.5 6 17.8 17.8 0 0 0 2-8q-3.292 1.662-6-.5a14.5 14.5 0 0 0 5-4l-1-1q2.73-1.469 3.5-4.5 4.917 1.281 10 3a14.8 14.8 0 0 1 4.5-3q-4.674-.63-8-3a4032 4032 0 0 0 127-1 266795 266795 0 0 1-38.5-67q-4.643-1.343-9.5 0 .116-1.875 2-2.5a32.4 32.4 0 0 0 6-1.5q2.397 3.71 4.5 0 .987 2.412-1.5 3.5 2.701.476 1 2a13.24 13.24 0 0 1 3 5 4.93 4.93 0 0 0 3 .5 4.93 4.93 0 0 0-.5-3l-1 1a12.5 12.5 0 0 1 0-7q1.524-1.701 2 1 .417-1.373 1.5-2a65 65 0 0 0 2.5-5q2.727 3.218 4.5 0 7.875 2.922 16.5 3 8.534-.63 17.5 0a4.93 4.93 0 0 0 .5 3q1.461-3.567 2 1a12.9 12.9 0 0 0 .5-5q2.464-.03 4 2a7.25 7.25 0 0 0 2.5-2q.926 1.423-.5 2.5 4.435.979 7.5-2.5 9.126 1.713 18.5.5-5.965-2.203-10-6.5"/>
  <path fill="#d8a051" d="M251.5 129.5q59.886-3.633 100.5 40 .952 3.202-1 6a2958 2958 0 0 1-37 63l-61-104q-1.513-2.288-1.5-5"/>
  <path fill="#775d38" d="M153.5 198.5q62.745 1.498 126 1a4032 4032 0 0 1-127 1q-.257-1.487 1-2"/>
  <path fill="#0c0b17" d="M208.5 242.5a74312 74312 0 0 0 18-32q.814-.09 1-1-38.986-1.5-78-1a2949 2949 0 0 1 77-1.5q-1.752-2.109 1-3.5 9.95-1.495 20-1 .213 6.068 0 11.5 5.024.134 1.5 3.5l-1-2a50.5 50.5 0 0 0-.5 10q-5.615-.061-.5 2 1.232 4.581-.5 9-2.106-2.249-2 1 .448 3.472 2.5 0l.5 1q-.363 4.228 0 9-3.399.538-5.5-2-4.07 2.234-7.5-1-2.762 2.505-6.5 3-1.418-.608-2-2-.75 1.75-2.5 2.5-5.86-.228-10.5.5-2.043-2.137-4.5-2.5l2-1q-1.321-1.062-2-2.5"/>
  <path fill="#2f251e" d="M149.5 209.5v-1q39.014-.5 78 1-.186.91-1 1a1483 1483 0 0 0-77-1"/>
  <path fill="#d8a051" d="M149.5 209.5a1483 1483 0 0 1 77 1 74312 74312 0 0 1-18 32 2769 2769 0 0 0-44 75.5q-15.57-17.939-19-42.5-.384-3.438 1-6.5-2.319-2.16-2.5-5.5a278 278 0 0 1 .5-36q.665-9.673 5-18"/>
  <path fill="#44647d" d="M400.5 277.5q5.748-38.1-5-75-.098-.657.5-1a29.5 29.5 0 0 0 2.5 4.5l-1 1a20.6 20.6 0 0 1 6 2l-4 1q1.255 1.517 1 3.5h3a15.4 15.4 0 0 0 1 7q-.519 1.794-1.5 0-1.572 5.541 2.5 7l-2 8q.591 3.952 3.5 2 2.09 2.832 5.5 4 3.98-1.178 2-4.5 4.889-.441 9-4.5-2.78-1.89-5.5 0-2.048-5.508-6-1-.926-1.423.5-2.5 5.082.287 10-.5a37 37 0 0 1 4.5 2q.684-1.866-1.5-2.5 3.916-.221 7-2.5 4.392.594 9 .5a15.4 15.4 0 0 0 6 3q-3.038 1.791-1 4.5-2.634 2.536-1.5 6l1-1a23 23 0 0 0 2 5 73.5 73.5 0 0 0 11 9q2.72-1.89 5.5 0a12.4 12.4 0 0 1-4 2.5q1.71 3.311 6 5.5-1.782-.29-4 1.5a4.46 4.46 0 0 1 2 1.5 55 55 0 0 1-4.5 2l-1-1a7.3 7.3 0 0 1-2 3l-2-6a13.3 13.3 0 0 1-4.5-3q-.858 2.367-1 4.5 1.684 1.565 4 2a9.5 9.5 0 0 0-2.5 1.5q-4.239-3.147-8.5-.5 1.375.561 2.5 1.5 1.077-1.426 2.5-.5-3.667 1.206-5.5 4.5-2.655-2.877-6.5-1.5 1.712 1.112 0 2.5a14.7 14.7 0 0 0 5 1.5 15.3 15.3 0 0 0-4.5 1.5 23.6 23.6 0 0 1-3.5-1 4.46 4.46 0 0 1 2-1.5q-.546-3.777-3.5-7.5-4.116 1.041-8.5 3a32 32 0 0 0-2.5-4 15.9 15.9 0 0 1-2.5 4.5q.608 1.418 2 2l-4 2 2 1q-4.39 2.64-6 7.5a66.5 66.5 0 0 1-11 0z"/>
  <path fill="#446381" d="M121.5 238.5q-.25 10.512.5 21 7.635 78.372 76.5 115l10 6q-1.769 3.01 1.5 1 2.376 2.042 5.5 2a8.4 8.4 0 0 1-.5 4q-5.157 1.377-4 6-1.112-1.712-2.5 0-1.904 3.292 0 6.5a17.8 17.8 0 0 0-5 3.5l4 3q-.519 1.794-1.5 0-10.517 4.48-9-7a25.8 25.8 0 0 0-2 8q-3.743-9.744-4.5 0a6.8 6.8 0 0 1-1.5-3q-.991 3.624-4.5 5l-2-2q-2.031 2.526-5 1.5 2.701-.476 1-2-5.228.668-10.5-1.5l-1 2a7.25 7.25 0 0 0-2.5-2q-3.756 5.478-9 1-2.43-3.359 1-5.5-2.098-.892-4 .5l-2-2q-3.987 3.984 0 8-3.235 5.696-10 6.5a26.4 26.4 0 0 1-5 4.5q-2.014-2.103-2.5 1a19.8 19.8 0 0 1-5.5-5 4.46 4.46 0 0 0-2 1.5q6.326 3.906-1 4.5.483-3.333-2-5.5-9.955-3.95-16.5-12.5-.575.834-1.5 1l-8-7a26 26 0 0 0-5-7 10.1 10.1 0 0 1 1.5-4q1.5 2 3 0-1.09-4.418 2.5-8 .21 1.604 0 3.5 4.365 4.203 8 0-1.574-.739-3 .5.586-1.827-2-2.5 1.554-2.426 3.5-.5a7.3 7.3 0 0 0 2-3q2.428.875 5.5 0 .253 1.346 1 3 2.2-1.793 4.5 0l1.5-1-2-1q4-1 5-5a32.4 32.4 0 0 1 6-1.5 22.2 22.2 0 0 1-6-3.5q5.722 1.207 12 0-1.536-6.504-7.5-4l-1-3q-1 3-4 4-.939-3.736-2.5 0a13.3 13.3 0 0 0-4.5-3q-.926 1.423.5 2.5-3.986 3.479-5.5 8.5a512 512 0 0 0-6-4q-1.588.195-2.5 1.5 1.816 1.34 0 2.5-3.127-3.21 0-5.5-1.84-2.381 1-4-1.758-2.803.5-5.5l1 2a11.3 11.3 0 0 1 3.5-1.5q-3.685-1.731 0-4l-2-2q.913-3.087 3-2.5-1.852-3.816-3.5 0 .416-4.355 3.5-8-1.238-1.329-3-1 .255-1.983-1-3.5 3.815-.21 7-2-8.238-4.561-3-11.5-1.526-3.792-3.5 0a55 55 0 0 1-4.5-2q1.712-1.388 0-2.5 3.217-1.114.5-2.5-2.802 1.303-1.5 3.5-3.918 1.111-5-3 4.164-2.668-1-3 1.07-2.014-1-4l3-1a29 29 0 0 0-5-2.5q1.456-2.193-1-4 1.238-1.427.5-3l-1 1q-2.345-4.842-7.5-6.5a122 122 0 0 1-16-2.5q-7.965-.864-15-4 .21-2.436-2-3.5a7.3 7.3 0 0 1 3-2 4.93 4.93 0 0 0-3-.5q-.09-3.825-4-4.5 2.358-5.126 3.5.5a7.3 7.3 0 0 0 2-3l1 1a59 59 0 0 0 2.5-8 4.46 4.46 0 0 0-2-1.5 14.3 14.3 0 0 0 2.5-6.5q6.535 1.04 13.5 1 2.808 2.66-.5 6-2.033-3.643-5-4-.81 2.452 1.5 4 3.28 1.081 6.5 2-2.958 2.095-3.5 5.5a6.98 6.98 0 0 1 3.5 2.5q2.178-2.11-.5-4.5 2.667.066 5 2-1.846 1.774 0 3.5a19.4 19.4 0 0 0 8 1q-.28-6.184 5-6a32 32 0 0 1-3.5-4q-2.51 2.264-5 2 .222-1.988-.5-3.5a29.5 29.5 0 0 0 2.5-4.5q1.574 1.526 3.5.5a18 18 0 0 1-2-3.5q.657-1.509 2 0 1.329-1.237 1-3 4.647-.13 1 1.5.912 1.305 2.5 1.5 5.83-.165 11.5 0l2-6q8.308-1.504 1-4-1.532-.753-.5-2 3.1 3.772 4.5-.5-2.601-3.085-6-1.5-2.456-1.807-1-4a10.3 10.3 0 0 0-4-1.5q2.448-1.965 5-1.5a6.8 6.8 0 0 0-3-1.5 12.5 12.5 0 0 0 5-4q-3.103-.486-1-2.5 5.52-.26 11 0l3-1q-.64-5.5 3-.5-2.877 2.655-1.5 6.5l1-1q.075 3.366 2.5 5"/>
  <path fill="#456680" d="M127.5 206.5a531 531 0 0 1-4 20 113 113 0 0 0-2 12q-2.425-1.634-2.5-5l-1 1q-1.377-3.845 1.5-6.5-3.64-5-3 .5l-3 1q-5.48-.26-11 0-2.103 2.014 1 2.5a12.5 12.5 0 0 1-5 4 6.8 6.8 0 0 1 3 1.5q-2.552-.465-5 1.5 2.157.328 4 1.5-1.456 2.193 1 4 3.399-1.585 6 1.5-1.4 4.272-4.5.5-1.032 1.247.5 2 7.308 2.496-1 4l-2 6q-5.67-.165-11.5 0-1.588-.195-2.5-1.5 3.647-1.63-1-1.5.329 1.763-1 3-1.343-1.509-2 0a18 18 0 0 0 2 3.5q-1.926 1.026-3.5-.5a29.5 29.5 0 0 1-2.5 4.5q.722 1.512.5 3.5 2.49.264 5-2a32 32 0 0 0 3.5 4q-5.28-.184-5 6a19.4 19.4 0 0 1-8-1q-1.846-1.726 0-3.5-2.333-1.934-5-2 2.678 2.39.5 4.5a6.98 6.98 0 0 0-3.5-2.5q.542-3.405 3.5-5.5a168 168 0 0 1-6.5-2q-2.31-1.548-1.5-4 2.967.357 5 4 3.308-3.34.5-6-6.965.04-13.5-1a14.3 14.3 0 0 1-2.5 6.5 4.46 4.46 0 0 1 2 1.5 59 59 0 0 1-2.5 8l-1-1a7.3 7.3 0 0 1-2 3q-1.142-5.626-3.5-.5 3.91.675 4 4.5a4.93 4.93 0 0 1 3 .5 7.3 7.3 0 0 0-3 2q2.21 1.064 2 3.5-3.324-1.054-5.5-4a46 46 0 0 1-2-10 385 385 0 0 1 .5-46q-.23-6.562 4-11.5a118 118 0 0 1 23-6.5 51 51 0 0 0-4 2.5q7.61 1.674-.5 3.5-7.981-4.863-13.5 2.5.685.621 1 1.5-10.37 4.805 1 4.5l-1-1a6.98 6.98 0 0 0 3.5-2.5 10.8 10.8 0 0 0 2.5 3q-2.044 2.089-2.5 5-.981 1.794-1.5 0 1.477-2.397.5-5a28 28 0 0 0-3.5 4.5q.351 2.599 3 2.5a385 385 0 0 1 13.5-4 413 413 0 0 0-2 12q2.94-3.038 2.5-6.5 4.08-1.085 6.5-4.5 6.45 2.961-.5 6-2.105-2.249-2 1 1.037 3.587 3 0a8.2 8.2 0 0 0 4 2.5q-3.693 1.823-8 2l1 1a6.8 6.8 0 0 0-3 1.5q2.334 3.301 3.5 0l2.5 3 1-4a20.2 20.2 0 0 1 6-1.5q-2.145-2.82 1-4.5 2.053 2.436 5 1.5-1.926-1.946.5-3.5.296 3.542 3.5 5 1.656-1.697-1-2.5a10.3 10.3 0 0 0 4-1.5q-3.99-3.855 2-4.5a4.46 4.46 0 0 0-2-1.5 20.9 20.9 0 0 1-6.5 3q-2.365-4.763-5.5-1-3.472-.448 0-2.5-.175-1.903-1-4l3-1q-1.71-1.112 0-2.5-2.118-1.96-5-2.5 6.085-2.174 12-2.5a20 20 0 0 1-4-3.5l4-1a3.65 3.65 0 0 1-1-1.5 28 28 0 0 0 1.5-5q1.236 1.962 1.5 4.5 2.45.74 5 .5a4.93 4.93 0 0 1-.5 3q-2.241-1.87-4.5 0 1.71 1.388 0 2.5a21.4 21.4 0 0 1 5 0q-2.75.75-3.5 3.5-1.076-1.426-2.5-.5a119 119 0 0 0 9 3 11.3 11.3 0 0 0-3.5 1.5q-2.375-3.74-4.5.5 1.424.926 2.5-.5.75 1.75 2.5 2.5a3.65 3.65 0 0 0-1 1.5q1.83 2.994 5 2.5a4.46 4.46 0 0 1-2-1.5q1.202-2.779 1-5l2 5a7.25 7.25 0 0 0 2.5-2l1 4q3.23-6.774 9.5-10.5l-1-1q1.866-.684 2.5 1.5l1-2q1.112 1.712 2.5 0 2.032-3.034 1-6 3.504-1.64 0-4-1.343 1.509-2 0a9.1 9.1 0 0 0 1-5q5.492-.111 2 3a186 186 0 0 1 2 3"/>
  <path fill="#bc8d50" d="M144.5 227.5a278 278 0 0 0-.5 36q.181 3.34 2.5 5.5-1.384 3.062-1 6.5-1.51-4.233-2.5-9l-.5-16.5q-.32-11.601 2-22.5"/>
  <path fill="#0c0c17" d="M382.5 177.5a148.3 148.3 0 0 1 13 25q10.748 36.9 5 75-5.305 21.147-15 41a109.5 109.5 0 0 1-15 20 4.93 4.93 0 0 0-3 .5 47.7 47.7 0 0 1-7.5 8.5q-.81-2.452 1.5-4-.519-1.794-1.5 0a8.4 8.4 0 0 1-.5-4q8-1 0-2 .816-6.26-2-11.5 5.686-1.752 2-5.5a8232 8232 0 0 1 10-16q3.624-2.124 6-6a147 147 0 0 1-7-5.5q4.086-.405 8-1.5l5-12q2.355-.291 4.5 0 1.344-3.788-1.5-6.5 2.256-2.236 2.5-5.5 7.048-3.252-.5-3a17.8 17.8 0 0 1 2-8 4.46 4.46 0 0 1 1.5 2q.948-3.047 3.5-5 3.044 1.693 1-1.5a8.4 8.4 0 0 0-4-.5 15.4 15.4 0 0 1 1-7q-1.586-.609-4 0-.625-3.869 2-6.5-3.98-3.108 1-5-3.332-2.504-1-6a29.5 29.5 0 0 1-4.5-10.5q-1.565 1.684-2 4-2.346-3.195 0-6 2.463 2.02 2-1-2.167-2.483-5.5-2-.091-3.138-3-4.5a4.93 4.93 0 0 1 3-.5q.072-10.162-9-14.5l1-1q-1.392-.582-2-2 1.973-4.328-2.5-6.5l-1 2q-1.73-3.978-5.5-6-1.197.686-1 2h-1q-3.764-5.51 1-9.5a11.5 11.5 0 0 0-1-2.5 48 48 0 0 1 5-2.5q-4-1 0-2-5.346-5.706-3.5-13.5a1701 1701 0 0 1 8 12q4.527 1.892-.5 4 3.4 1.221 7 1.5l1 1-3 1q5.166.166 7 5a4.46 4.46 0 0 0-2 1.5q2.442.118 5 1"/>
  <path fill="#0d0c12" d="M369.5 304.5a5.73 5.73 0 0 1 1-3q1.356-1.063 1-3h-8a309 309 0 0 0-25-1.5l27-1 1-1a32.6 32.6 0 0 0-7-3 1970 1970 0 0 1-63-1.5q39.758.497 79-1 13.115-37.663 1.5-76-4.885-18.782-17.5-33-.197-1.314 1-2 3.77 2.022 5.5 6l1-2q4.473 2.172 2.5 6.5.608 1.418 2 2l-1 1q9.072 4.338 9 14.5a4.93 4.93 0 0 0-3 .5q2.909 1.362 3 4.5 3.333-.483 5.5 2 .463 3.02-2 1-2.346 2.805 0 6 .435-2.316 2-4a29.5 29.5 0 0 0 4.5 10.5q-2.332 3.496 1 6-4.98 1.892-1 5-2.625 2.631-2 6.5 2.414-.609 4 0a15.4 15.4 0 0 0-1 7 8.4 8.4 0 0 1 4 .5q2.044 3.193-1 1.5-2.552 1.953-3.5 5a4.46 4.46 0 0 0-1.5-2 17.8 17.8 0 0 0-2 8q7.548-.252.5 3-.244 3.264-2.5 5.5 2.844 2.712 1.5 6.5-2.145-.291-4.5 0l-5 12a47 47 0 0 1-8 1.5 147 147 0 0 0 7 5.5q-2.376 3.876-6 6"/>
  <path fill="#d89f50" d="m270.5 362.5 3 6-1.5 1a60.9 60.9 0 0 1-21.5 0q-48.576-5.784-80-43l39.5-67q30.29 51.595 60.5 103"/>
  <path fill="#5c492e" d="M297.5 288.5q38.742 1.497 78 1a1561 1561 0 0 1-79 1q-.258-1.488 1-2"/>
  <path fill="#4c3d28" d="M245.5 299.5a3480 3480 0 0 1 118-1h8q.356 1.937-1 3-61.98-2.991-125-2"/>
  <path fill="#d8a051" d="M245.5 299.5q63.02-.991 125 2a5.73 5.73 0 0 0-1 3 8232 8232 0 0 0-10 16q-18.149 24.3-45 38a326 326 0 0 1-29 10 456 456 0 0 1-4-5z"/>
  <path fill="#111118" d="M359.5 320.5q3.686 3.748-2 5.5 2.816 5.24 2 11.5 8 1 0 2a8.4 8.4 0 0 0 .5 4q.981-1.794 1.5 0-2.31 1.548-1.5 4a47.7 47.7 0 0 0 7.5-8.5 4.93 4.93 0 0 1 3-.5 115.6 115.6 0 0 1-26 25q-.21-2.436 2-3.5a700 700 0 0 1-32-1.5q26.851-13.7 45-38"/>
  <path fill="#0b0c12" d="M52.5 327.5q5.948 1.476 0 3 1.412-.017 2 1.5l-1 1.5q-1.902-1.392-4-.5.685.621 1 1.5a49 49 0 0 0-3.5 9q-3.755.02-7.5 2.5l6 1q-2.844 1.597-.5 2.5 1.892-.389 3-2 .621.686 1.5 1-.502-1.746 0-4l3 2q1.046-2.827 3-1 2.33-2.647 1-5.5 2-1 4 0-2.674 1.6-1.5 4.5l1-1q1 1.5 0 3-1.37-1.73-2.5.5 2.617 2.538 1 5.5-1.388-1.712-2.5 0l-1-2q-2.583.692-5.5.5 1.32 2.034 1 4.5a4.93 4.93 0 0 0-3 .5q6.648 1.748 1 4.5 1.753 2.576 5 2 .297 3.112.5 6a99 99 0 0 0-8-2q-1.418-.608-2-2-2.367 1.817-.5 4l2-1a32.4 32.4 0 0 0 6 1.5 15.7 15.7 0 0 0-4 2.5q-2.044-2.069-3 .5 4.335 2.838-1 2.5a2012 2012 0 0 0-3.5-9 13.9 13.9 0 0 1-4 3q-1.328-9.867-3.5 0-3.601-4.369-4 1a6.85 6.85 0 0 0-4 1 22.5 22.5 0 0 0-3-4q2.316-1.683 4 1a4.46 4.46 0 0 0 2-1.5 20 20 0 0 0-4-3.5l2-1q2.658 1.29 4 4 3.302-2.334 0-3.5a10.8 10.8 0 0 0 3-2.5l2.5 3q2.137-1.068 4.5-.5l1-1-3-1q3.682-.59 6-3.5-1.166-3.058-3.5-2-4.8-3.087 1.5-3 .329-1.763-1-3-14.858 6.75-3-2.5a32 32 0 0 0-4-2.5q2.133-1.57 4.5 0a11.3 11.3 0 0 0 4-2q2.045 1.137 3.5-1.5-3.265-.244-5.5-2.5-2.098.826-4 1a4.45 4.45 0 0 1-1.5-2q1.725-1.846 3.5 0 .94-3.736 2.5 0 2.8-4.094 3 1 1.983.255 3.5-1a26.1 26.1 0 0 1 5.5-9"/>
  <path fill="#44637c" d="M385.5 318.5q1.272 2.718 0 4.5a14.5 14.5 0 0 0-4.5 4.5q-1.572 5.539-5.5 9.5a10.8 10.8 0 0 1 3 2.5 4.46 4.46 0 0 0 1.5-2l1.5 4.5a15 15 0 0 1-4 3.5q3.629 3.79-2 5.5l1 1q-1.866.684-2.5-1.5a110 110 0 0 0-7.5 6q1.39 2.986.5 6 2.874-.217 5.5 1.5a9.5 9.5 0 0 0-1.5 2.5 4.46 4.46 0 0 0-1.5-2q-2.838 3.816-5.5 0l-.5 1.5a22 22 0 0 1 6 7.5l-2 2q1.717 2.086 0 4-1.636-2.272-4-2.5l1 1a6.98 6.98 0 0 0-2.5 3.5q-3.365-2.673-7.5-1.5a32 32 0 0 0 4 2.5q-1.773 2.95 2 4-1.473 3.501-.5 7-1.517-1.255-3.5-1-.479 5.7-3 .5a32.4 32.4 0 0 1 3-4.5 30 30 0 0 0-2-5q.6 3.489-1.5 7l-1-2a9.6 9.6 0 0 1-3 3q-5.577.493-11-2-3.418-.092-6 2l-1.5-1q6.227-2.593 8-9a3.65 3.65 0 0 1 1.5 1 193 193 0 0 0 4-3l2 2q1.112-1.712 2.5 0-1.674-3.428 0-6.5 1.573-.739 3 .5 1.817-1.16 0-2.5l2-1q-2-1.5 0-3l-2.5-2.5q-1.5 2-3 0a7.3 7.3 0 0 1-2 3q-4.665-1.76-.5 1.5-1.823 3.144-2.5-.5-2.712.582-5 0-.908 2.972-3 1-1.35 1.905-3.5 3l1 1q3.258.264 7 .5a24.6 24.6 0 0 1-8 3q.179 1.922-1.5 3.5a25.5 25.5 0 0 0-4.5-4q-2.739.63-6 0a158 158 0 0 0 25-15 115.6 115.6 0 0 0 26-25 109.5 109.5 0 0 0 15-20"/>
  <path fill="#0b0c14" d="M435.5 304.5q3.517.718 4 4.5-.45 3.036-2.5 1.5-.75 1.75-2.5 2.5a6.98 6.98 0 0 1 3.5 2.5l1-1q2.154 5.214 6 1l1.5 1q-1.54 2.286-4.5 2-4.602-1.542-8.5-3.5.692 2.583.5 5.5 2.589-1.614 5.5-.5-5.889 2.315-10.5 6.5-1 1.5 0 3 3.942 1.884 3 6-5.077-2.341-2 2l1-1a35.6 35.6 0 0 1 4.5 4q-4.22 3.888-8.5 0-2.432.337-3.5 2.5 2.028 4.776 7 6.5a10.3 10.3 0 0 1-4 1.5q2.157.328 4 1.5 2.657 5.895 3.5-1 1.652 5.6 2 11 2.668-1.469 5 1 1.461-3.567 2 1 1.946-1.926 3.5.5-2.75.75-3.5 3.5l-1-1q-1.514 2.288-1.5 5a6.85 6.85 0 0 1 4 1q1.403 3.903 5 6-1.974 5.968-4 0-3.792 1.497 0 2.5-5.985.277-4 5.5 2.322-3.633 5 0 2.97-1.325 6 .5l-1 1q2.607 4.305 2.5-1.5a20.5 20.5 0 0 1-4.5-2.5q3.264-.244 5.5-2.5 2.092 1.972 3-1 3.587 1.654 1.5-2l2-2q-.752-1.532-2-.5-1.678 5.35-6 2l4.5-4.5q.22-4.606 2.5-8.5-2-2 0-4-3.422-2.223 0-5-5.401-1.537 0-4.5.253 1.346 1 3 1.5-2.5 4-4 1.095 2.15 3 3.5-.144 4.785 0 10.5h4q.085-15.68 2.5 0l1-1 2.5 3q1.344-1.509 2 0-2.365 4.763-5.5 1-2.157 3.833 0 8 2.092-1.972 3 1 3.895-5.058 5.5 0 3.07.016 6 1 2.47-1.167 4-3.5 1.702-1.124 3 .5a22.5 22.5 0 0 0-3 4q-1.5 2-3 0-1.095 2.15-3 3.5 2.366 1.71 5 1.5-.885 1.948-3 2.5l5 3q-2.09 1.756-2.5 4.5-2.097 7.905 5.5 5.5-.795 3.205 2.5 5.5l1-1q.724 1.422.5 3-7.048.086-1.5 5 2.912-6.08 2.5 1a4.93 4.93 0 0 0-3 .5q1.17 1.61-.5 3.5-1.5-2-3 0-1.953-5.736-4.5 0l1 2a32.5 32.5 0 0 0-6 2.5 133 133 0 0 0 8 4.5 4.46 4.46 0 0 1-2 1.5q1.75 4.25-2.5 2.5-2.754 2.447 1.5 2 .21 2.436-2 3.5 3.587 1.964 0 3a7.25 7.25 0 0 1 2 2.5q-.923 6.874-3.5 1-7.591 2.655-4.5-5a32.4 32.4 0 0 0-4.5-3q-1.898 5.737-6 10a4.46 4.46 0 0 0-1.5-2q-2.281.57-5 .5 2.169 3.74-2 5.5 2.17 3.177 2 7 1.763.329 3-1-4.194-4.678.5-9 .176 5.116 4.5 7.5-1.198 3.342 3 4a14.6 14.6 0 0 0-6 4q2.93-.68 5.5-.5 3.276 3.556 6.5-.5-4.202-2.606-6-5.5l1-1 5 3q2.81.027 1-1.5 4.79-1.538 4-6.5-4.182.635-6-3 4.514-.784 9 1.5 5.097 4.335 1-2 .608-1.418 2-2-1.817-1.67 0-3.5a7.3 7.3 0 0 1-2-3q3.711-5.76 5 0 3.865-5.596-3-4.5.723-1.512.5-3.5 2.616.795 4.5 0-.702-2.45-3-3.5a4.46 4.46 0 0 1 2-1.5q1.441 4.192 5.5 6 5.14-3.5-1.5-3.5 2.972-.908 1-3a10.3 10.3 0 0 0 4-1.5 4.46 4.46 0 0 0-2-1.5q2.184-.634 1.5-2.5-.981 1.794-1.5 0l4-3q.894 1.824.5 4 .574-.834 1.5-1v94h-256a5.6 5.6 0 0 0-1-3q3.228-3.468 6 1 2.154-3.483 5.5-2 .181-3.34 2.5-5.5-4.735-3.636-1-8a34 34 0 0 0 6-3l-2-1q2-1 0-2 2.32-.5 4 1.5 2.603-.835 5-1-4.167-1.957-8-6-2.81-.027-1 1.5-1.392.582-2 2 1.187 1.651 0 2.5-2.032-3.034-1-6-4.113-1.5-6 3 3.447 3.359-2 2.5l1-1q-2.68-4.32-.5-8.5l1 2a77 77 0 0 0 6.5-3q2.294.044 3.5 2 1.94-2.031.5-4a48 48 0 0 1 5-2.5q-2.603-.977-5 .5l-3-1.5 6.5-.5q7.1 4.203 13.5-1 2.547 1.771 5 0a71 71 0 0 1-4-2q4.209-.483 7.5-3a448 448 0 0 0 9-35q2.22-4.976 7.5-6 1.057 5.274-5 6.5 1.293 4.101 2.5.5 2.423 1.734 0 4-2.452-2.023-4.5.5l2 2q-2.115.552-3 2.5 1.298.096 3 1l4-3q3.564 1.618.5 4l-1-1a11.3 11.3 0 0 1-3.5 1.5q-.841 2.514-3 4 1.76 4.665-1.5.5-1.904 2.107-1.5 5 2.217-.393 4 1-2.118 1.96-5 2.5a6.8 6.8 0 0 1 3 1.5q-2.459 2.124-2.5 5a14.3 14.3 0 0 1 6.5-2.5q2.97-5.525 4.5-.5a43 43 0 0 1 4.5-6.5q-1.846-1.774 0-3.5 3.314 2.223 5-1.5a108 108 0 0 0-9-2 20 20 0 0 0 4-3.5 17.4 17.4 0 0 0 6.5 3l1-1q1.066 3.598-.5 7 2.233.05 4 1.5-1.89 2.72 0 5.5 1.846-1.726 0-3.5 1.863-.466 3 1.5 1.509-.656 0-2a14.7 14.7 0 0 1 5-1.5 4.93 4.93 0 0 0-3-.5q-.257-4.946 2-1 1.702-.904 3-1a28 28 0 0 1-5-4.5 6.98 6.98 0 0 0 2.5-3.5q1.746-.502 4 0 2.455-6.817 7 0 .477-2.342 2.5-3.5-1.255-1.517-1-3.5 2.436-.21 3.5 2l.5-2-3-5a3.65 3.65 0 0 1 1-1.5q3.029 1.414 6 1.5a3.65 3.65 0 0 0 1 1.5 8.4 8.4 0 0 1-4 .5q1.224 4.726-1 9.5l2 1a7.3 7.3 0 0 0-3 2q1.712 1.112 0 2.5.519 1.794 1.5 0a12.5 12.5 0 0 0 4 5l1-3q.779 1.524 2.5 2 2.85-1.42 4-4.5-2.626-1.717-5.5-1.5-.405-2.148 2-3 2.696 2.484 6.5 3l3 4 2.5-3 1 2q2-2 4 0 2.721-2.026-1-3l-1 1a168 168 0 0 1-6.5-2q1.74.095 4-1 1.671-1.834.5-4-.677 3.644-2.5.5a3.65 3.65 0 0 0 1-1.5q3.78-1.66 7.5-3a3.94 3.94 0 0 1 2 1 26.7 26.7 0 0 1 6.5-1.5q-.852-2.477-4-5a15.3 15.3 0 0 1-4.5-1.5q-2.559 1.212-2.5 4a4.93 4.93 0 0 1-3-.5q1.817-1.34 0-2.5-3.012 3.393-1-1.5 7.479-1.698 0-5 1.884-.625 2-2.5a93 93 0 0 0 15 7q3.437-.183 6-2.5a94 94 0 0 0 10-9.5q18.623-14.372 31.5-34 1-2.5 0-5l-16-28a22.4 22.4 0 0 1-2.5-8 427 427 0 0 0 15-36"/>
  <path fill="#0c0c18" d="M250.5 369.5a60.9 60.9 0 0 0 21.5 0l1.5-1-3-6q2.311-4.024 7-2.5.904 3.107 4 3.5a456 456 0 0 0 4 5 326 326 0 0 0 29-10 700 700 0 0 0 32 1.5q-2.21 1.064-2 3.5a158 158 0 0 1-25 15q-42.612 17.385-88 9a446 446 0 0 1-23-7l-10-6q-.862-2.553-2.5-5-3.732 1.368-5-3a4.46 4.46 0 0 1-1.5 2l-2-3q-5.256-2.513-9-5 3.5-2 7 0-1.443 3.574 3 3v-4a96 96 0 0 0 19-1 311 311 0 0 1 18.5 10q6.755-2.515 10.5 4 .616-1.143.5-3 2.26 1.507 3.5 4 5.169-2.748 4.5 2 2.559-1.212 2.5-4a8.4 8.4 0 0 0 4-.5q-.834-.574-1-1.5"/>
  <path fill="#47667f" d="M65.5 290.5a122 122 0 0 0 16 2.5q5.155 1.658 7.5 6.5l1-1q.738 1.573-.5 3 2.456 1.807 1 4a29 29 0 0 1 5 2.5l-3 1q2.07 1.986 1 4 5.164.332 1 3 1.082 4.111 5 3-1.302-2.197 1.5-3.5 2.717 1.386-.5 2.5 1.712 1.112 0 2.5a55 55 0 0 0 4.5 2q1.974-3.792 3.5 0-5.238 6.939 3 11.5-3.185 1.79-7 2 1.255 1.517 1 3.5 1.762-.329 3 1-3.084 3.645-3.5 8 1.648-3.816 3.5 0-2.087-.587-3 2.5l2 2q-3.685 2.269 0 4a11.3 11.3 0 0 0-3.5 1.5l-1-2q-2.258 2.697-.5 5.5-2.84 1.619-1 4-3.127 2.29 0 5.5 1.816-1.16 0-2.5.912-1.305 2.5-1.5a512 512 0 0 1 6 4q1.514-5.021 5.5-8.5-1.426-1.077-.5-2.5a13.3 13.3 0 0 1 4.5 3q1.561-3.736 2.5 0 3-1 4-4l1 3q5.964-2.504 7.5 4-6.278 1.207-12 0a22.2 22.2 0 0 0 6 3.5 32.4 32.4 0 0 0-6 1.5q-1 4-5 5l2 1-1.5 1q-2.3-1.793-4.5 0-.747-1.654-1-3-3.072.875-5.5 0a7.3 7.3 0 0 1-2 3q-1.946-1.926-3.5.5 2.586.673 2 2.5 1.426-1.239 3-.5-3.635 4.203-8 0 .21-1.896 0-3.5-3.59 3.582-2.5 8-1.5 2-3 0a10.1 10.1 0 0 0-1.5 4q-6.727-5.465-5.5-14l17-30a16.24 16.24 0 0 0 0-8 298 298 0 0 1-17-40 341 341 0 0 0-20.5-7"/>
  <path fill="#0b0c13" d="m96.5 396.5 8 7a124.4 124.4 0 0 0 26 23.5q3 1 6 0l26-16q3.6-2.551 8-2.5a456 456 0 0 0 42 16.5 10.5 10.5 0 0 0 3 2.5q0 1 1 1a370 370 0 0 1 8.5 33q.52 3.522 3.5 5.5 16.179 4.274 33 3.5 14.599.145 29-2a71 71 0 0 0 4 2q-2.453 1.771-5 0-6.4 5.203-13.5 1l-6.5.5 3 1.5q2.397-1.477 5-.5a48 48 0 0 0-5 2.5q1.44 1.969-.5 4-1.206-1.956-3.5-2a77 77 0 0 1-6.5 3l-1-2q-2.18 4.18.5 8.5l-1 1q5.447.859 2-2.5 1.887-4.5 6-3-1.032 2.966 1 6 1.187-.849 0-2.5.608-1.418 2-2-1.81-1.527 1-1.5 3.833 4.043 8 6-2.397.165-5 1-1.68-2-4-1.5 2 1 0 2l2 1a34 34 0 0 1-6 3q-3.735 4.364 1 8-2.319 2.16-2.5 5.5-3.346-1.483-5.5 2-2.772-4.468-6-1a5.6 5.6 0 0 1 1 3H-.5v-82q2.038-1.689 4 0-3.797 2.554-.5 8a20 20 0 0 1 3.5-4q4.605-1.375 8-4.5-2-1 0-2-5.64-2.48-11-4l4-1q-1.817-1.67 0-3.5a7.25 7.25 0 0 0-2-2.5 11.4 11.4 0 0 1 2-2.5 48 48 0 0 0 7.5 4q.41-2.744 2.5-4.5a7.25 7.25 0 0 1-2-2.5q2.362-1.697 5-.5 4.132 6.796 5.5-.5l1 2q5-2 0-4-3.243.66-6.5 1a8.9 8.9 0 0 1-4-3q-3.5 8.16-9.5 2l-1 2q-1-2.5 0-5 1.517 1.255 3.5 1a8.44 8.44 0 0 1 .5-4q1.89 6.047 6 2 3.421 2.292 7.5 1.5a36 36 0 0 1-4.5-3.5q-.925-1.423.5-2.5l-2-1q3.837-2.07 0-4.5a15.7 15.7 0 0 0 2.5-4q1.575 1.526 3.5.5-3.792-1.526 0-3.5a6.85 6.85 0 0 1-1-4q4.06-1.423 8 0-3.577 3.947 2 6a3.65 3.65 0 0 1-1 1.5q1.9.464 3.5 1.5.299-2.853 2.5-4.5-1.925-1.026-3.5.5-1.125-1.702.5-3 4.773.673 8 4-1.725 1.846-3.5 0a11.4 11.4 0 0 0-2.5 2l4.5 5a110 110 0 0 0 5-9q2.23 1.13.5 2.5a4.93 4.93 0 0 0 3 .5q-.31-4.868 4.5-6 5.17 3.485 11.5 4-.699 2.552 0 4.5 1.424.926 2.5-.5a10.94 10.94 0 0 0 4.5 3 31.4 31.4 0 0 1 7-3.5l-2-1q3.663-2.169 8-2.5.257 2.988-2 5l3 2q-2.775 2.934-7 3a6.85 6.85 0 0 0 1 4q-8.006.165 0 4 3.414-1.053 7 .5-1.392.582-2 2 .45 3.036 2.5 1.5l2.5 6a14.7 14.7 0 0 0 1.5-5q1.524 1.701 2-1 .94 3.736 2.5 0 3.83 3.816 7.5 0 3 2 0 4-3.359-2.053-5.5 1.5 3.29 4.986 4-.5a18.4 18.4 0 0 0 7-2 15 15 0 0 0-3-3.5 42.8 42.8 0 0 1-9-1.5l-2-3q6.318-.459 2-4.5-4.972 1.393-9.5 4.5a4.93 4.93 0 0 1-.5-3q5.231-.599.5-2a16.8 16.8 0 0 1-6.5 2v-3q7.46-1.272 14.5 0a2.43 2.43 0 0 0 .5-2"/>
  <path fill="#43627b" d="M208.5 380.5a446 446 0 0 0 23 7q-2.682-.428-5 1 1.143.616 3 .5-4.445 4.098-9 .5a39.5 39.5 0 0 1-6 4.5q.686.621 1 1.5a9.3 9.3 0 0 0-2 2.5q1.386 1.725 0 3l2 1a12.4 12.4 0 0 0-4 2.5q6.627 1.398 13 3.5l-1 1 4.5 5.5a11.5 11.5 0 0 0 3.5-5l1 1.5q-1.05 6.117-6.5 4.5-1.418.608-2 2-3.237-3.624-8-5-5.144 4.786-3.5-1.5l-4.5-1.5q-3.528.352-7.5.5a20.6 20.6 0 0 0 6 2q-1.684 1.565-4 2a54 54 0 0 0 10.5 3.5q1.08 2.418-.5 4.5 2.49 2.232 3 5.5a10.5 10.5 0 0 1-3-2.5 456 456 0 0 1-42-16.5q-4.4-.051-8 2.5l-26 16q-3 1-6 0a124.4 124.4 0 0 1-26-23.5q.925-.166 1.5-1 6.544 8.55 16.5 12.5 2.483 2.167 2 5.5 7.327-.594 1-4.5a4.46 4.46 0 0 1 2-1.5 19.8 19.8 0 0 0 5.5 5q.486-3.103 2.5-1a26.4 26.4 0 0 0 5-4.5q6.765-.804 10-6.5-3.987-4.016 0-8l2 2q1.902-1.392 4-.5-3.43 2.141-1 5.5 5.244 4.478 9-1a7.25 7.25 0 0 1 2.5 2l1-2q5.272 2.168 10.5 1.5 1.701 1.524-1 2 2.969 1.026 5-1.5l2 2q3.509-1.376 4.5-5a6.8 6.8 0 0 0 1.5 3q.757-9.744 4.5 0a25.8 25.8 0 0 1 2-8q-1.517 11.48 9 7 .981 1.794 1.5 0l-4-3a17.8 17.8 0 0 1 5-3.5q-1.904-3.208 0-6.5 1.388-1.712 2.5 0-1.157-4.623 4-6a8.4 8.4 0 0 0 .5-4q-3.124.042-5.5-2-3.269 2.01-1.5-1"/>
  <path fill="#0c0c17" d="M376.5 420.5q-.116 1.875-2 2.5 7.479 3.302 0 5-2.012 4.893 1 1.5 1.817 1.16 0 2.5a4.93 4.93 0 0 0 3 .5q-.059-2.788 2.5-4a15.3 15.3 0 0 0 4.5 1.5q3.148 2.523 4 5a26.7 26.7 0 0 0-6.5 1.5 3.94 3.94 0 0 0-2-1q-3.72 1.34-7.5 3a3.65 3.65 0 0 1-1 1.5q1.823 3.144 2.5-.5 1.171 2.166-.5 4-2.26 1.095-4 1 3.28 1.081 6.5 2l1-1q3.721.974 1 3-2-2-4 0l-1-2-2.5 3-3-4q-3.804-.516-6.5-3-2.405.852-2 3 2.874-.217 5.5 1.5-1.15 3.08-4 4.5-1.721-.476-2.5-2l-1 3a12.5 12.5 0 0 1-4-5q-.981 1.794-1.5 0 1.712-1.388 0-2.5a7.3 7.3 0 0 1 3-2l-2-1q2.224-4.774 1-9.5a8.4 8.4 0 0 0 4-.5 3.65 3.65 0 0 1-1-1.5q-2.971-.086-6-1.5a3.65 3.65 0 0 0-1 1.5l3 5-.5 2q-1.064-2.21-3.5-2-.255 1.983 1 3.5-2.023 1.158-2.5 3.5-4.545-6.817-7 0-2.254-.502-4 0a6.98 6.98 0 0 1-2.5 3.5 28 28 0 0 0 5 4.5q-1.298.096-3 1-2.257-3.946-2 1a4.93 4.93 0 0 1 3 .5 14.7 14.7 0 0 0-5 1.5q1.509 1.344 0 2-1.137-1.966-3-1.5 1.846 1.774 0 3.5-1.89-2.78 0-5.5-1.767-1.45-4-1.5 1.566-3.402.5-7l-1 1a17.4 17.4 0 0 1-6.5-3 20 20 0 0 1-4 3.5q4.543.809 9 2-1.686 3.723-5 1.5-1.846 1.726 0 3.5a43 43 0 0 0-4.5 6.5q-1.53-5.025-4.5.5a14.3 14.3 0 0 0-6.5 2.5q.041-2.876 2.5-5a6.8 6.8 0 0 0-3-1.5q2.882-.54 5-2.5-1.783-1.393-4-1-.404-2.893 1.5-5 3.26 4.165 1.5-.5 2.159-1.486 3-4a11.3 11.3 0 0 0 3.5-1.5l1 1q3.064-2.382-.5-4l-4 3q-1.702-.904-3-1 .885-1.948 3-2.5l-2-2q2.048-2.523 4.5-.5 2.423-2.266 0-4-1.207 3.601-2.5-.5 6.057-1.226 5-6.5a282 282 0 0 0 36-15.5q5.197-1.225 10 1a192 192 0 0 1 16 10.5"/>
  <path fill="#43637c" d="M407.5 415.5a94 94 0 0 1-10 9.5q-2.563 2.317-6 2.5a93 93 0 0 1-15-7 192 192 0 0 0-16-10.5q-4.803-2.225-10-1a282 282 0 0 1-36 15.5q-5.28 1.024-7.5 6a448 448 0 0 1-9 35q-3.291 2.517-7.5 3a184 184 0 0 1-29 2q-16.821.774-33-3.5-2.98-1.978-3.5-5.5a370 370 0 0 0-8.5-33q2.096-.443 4.5-1 3.249 2.432 7.5 2.5l-5 1a7.3 7.3 0 0 0 3 2q-1.51 3.805 3 4.5a17.35 17.35 0 0 0 7-3.5l-1-1q1.89-1.67 3.5-.5.5-2.32-1.5-4a123 123 0 0 1 8-2l1 1a67 67 0 0 1-2 5.5l5 1a3.94 3.94 0 0 0-1 2 13.8 13.8 0 0 1 2.5 5.5q2.26-1.552 4.5.5-2.91 8.592-3.5.5-2.082 1.58-4.5.5-1.817-1.67 0-3.5-1.834-1.671-4-.5 2.103 2.013-1 2.5-7.327-4.135-7 4-1.96-2.118-2.5-5-2.034 1.32-4.5 1-1.418 3.098-2 5.5l4 1q-5.46 1.701 1 3-1.842 3.21-5 5l3 1q-2 2.76.5 1.5a15.3 15.3 0 0 0 4.5 1.5l-2 1a15.3 15.3 0 0 1 1.5 4.5l2.5-3q.05 2.233 1.5 4 .75-1.75 2.5-2.5-1.255-1.517-1-3.5 6.272.114 11-4 5.274 5.688 11 0a10.3 10.3 0 0 0-4-1.5q2.159-1.486 3-4a45.2 45.2 0 0 0 9-3.5 11.4 11.4 0 0 0-2.5-2q-.582 1.392-2 2-2.643-.666.5-1.5-1.441-5.141-5.5-8.5-2.586 4.005-3.5-1 2.15-1.095 3.5-3 3.38 4.606 7.5 1-2-2 0-4 2.367-.858 4.5-1v-12q2.705 2.452 3.5 6-.476 1.721-2 2.5l3 1.5q1.393-2.75 0-6.5l1.5-1.5 6 4a9.5 9.5 0 0 1 1.5-2.5q-3.089-1.778-.5-3.5 2.371 3.52 4 0 .374 4.015 3 7a40.7 40.7 0 0 1 3.5-7q-.17 3.526 2 7 3.425-.162 6-2.5-2.316-.435-4-2 5.253-.984 0-4a29 29 0 0 0 4-1.5q1.329 1.237 1 3 3.333.483 5.5-2l3 5a32.4 32.4 0 0 1 .5-7.5 14.5 14.5 0 0 0-4.5-4.5q-1-1 0-2l5-2q.552 2.115 2.5 3a51.5 51.5 0 0 1 11-7 4.46 4.46 0 0 1 1.5 2 29 29 0 0 1 1.5-4q-1.824-.894-4-.5 4.293-3.618 10-2-5.949 2.418 0 5-2.26 1.256-1.5 3.5 3.5-2 7 0 .426-3.579 3-2 2.23-1.13.5-2.5a8.4 8.4 0 0 1 4-.5q-.957 2.94 0 5.5 2.244.76 3.5-1.5 2.332 2.469 5 1 1.402 3.903 5.5 4.5 1.293 4.101 2.5.5l2 4h3a7.3 7.3 0 0 1 2 3 11.5 11.5 0 0 1 4.5-3.5l-2-1q2.541-2.592 3.5 1.5 2.662-3.816 5.5 0 3.654-2.087 2 1.5a4.46 4.46 0 0 0 2 1.5q5.902-9.969 4 0 3.354 1.968 6-1 3.18 2.058 3-2 3.537-.371 6 2"/>
  <path fill="#0b0c18" d="M149.5 420.5q3.909 1.864 0 4 3.094 3.412-2 5.5l7 1q-2.654 1.529-5 .5-1.635 1.337 0 3a52 52 0 0 1-10 1.5q1.846 1.774 0 3.5-2.298-6.412-8-3.5 3.978 2.819 3.5 7.5-2.046-1.137-3.5 1.5 1.32 2.034 1 4.5h-3a38 38 0 0 1-3-8q-2.464.03-4-2l-2 4q-1.617-2.962 1-5.5-1.703-1.124-3 .5a7.3 7.3 0 0 1-2 3q-2.118-1.96-5-2.5a12.9 12.9 0 0 1 5-.5q.042-3.124-2-5.5 2.428-2.885 5.5-1.5a10.8 10.8 0 0 1 2.5-3 9.86 9.86 0 0 0-6-1v-5q2.976-.175 5 2a4.46 4.46 0 0 1-2 1.5q2.9 1.175 4.5-1.5a74 74 0 0 1 6.5 5q-1.506 3.266 2 1 1.873 2.963 4.5 1l5 2q3.144-1.823-.5-2.5 2.35-3.45 3.5-7.5 3.039-.623 4.5-3"/>
</svg>
