<svg version="1.1" id="Layer_1" xmlns="http://www.w3.org/2000/svg" xmlns:xlink="http://www.w3.org/1999/xlink" x="0px" y="0px"
	 width="100%" viewBox="0 0 1080 1080" enable-background="new 0 0 1080 1080" xml:space="preserve">

<defs>
  <radialGradient id="gearOrange" cx="35%" cy="25%" r="78%">
    <stop offset="0%" stop-color="#FFD38A"/>
    <stop offset="45%" stop-color="#FF963F"/>
    <stop offset="100%" stop-color="#F05A24"/>
  </radialGradient>
  <radialGradient id="gearBlue" cx="35%" cy="25%" r="78%">
    <stop offset="0%" stop-color="#8EA6FF"/>
    <stop offset="45%" stop-color="#4F6FFF"/>
    <stop offset="100%" stop-color="#2648D8"/>
  </radialGradient>
  <radialGradient id="gearGreen" cx="35%" cy="25%" r="78%">
    <stop offset="0%" stop-color="#B7F56F"/>
    <stop offset="45%" stop-color="#78D957"/>
    <stop offset="100%" stop-color="#42B333"/>
  </radialGradient>
  <linearGradient id="ringSilver" x1="0" y1="0" x2="1" y2="1">
    <stop offset="0%" stop-color="#FFFFFF"/>
    <stop offset="52%" stop-color="#E7EAF0"/>
    <stop offset="100%" stop-color="#BFC6D1"/>
  </linearGradient>
  <linearGradient id="shutterPurple" x1="0" y1="0" x2="1" y2="1">
    <stop offset="0%" stop-color="#E38DFF"/>
    <stop offset="100%" stop-color="#9B3DCC"/>
  </linearGradient>
  <linearGradient id="speakerBlue" x1="0" y1="0" x2="1" y2="1">
    <stop offset="0%" stop-color="#6EA1FF"/>
    <stop offset="100%" stop-color="#2458E8"/>
  </linearGradient>
  <radialGradient id="playRed" cx="35%" cy="25%" r="75%">
    <stop offset="0%" stop-color="#FF8A72"/>
    <stop offset="55%" stop-color="#FF3B34"/>
    <stop offset="100%" stop-color="#D91E1E"/>
  </radialGradient>
  <linearGradient id="iconWhite" x1="0" y1="0" x2="1" y2="1">
    <stop offset="0%" stop-color="#FFFFFF"/>
    <stop offset="100%" stop-color="#F0F3F8"/>
  </linearGradient>
  <filter id="softShadow" x="-20%" y="-20%" width="140%" height="140%">
    <feDropShadow dx="0" dy="8" stdDeviation="8" flood-color="#111827" flood-opacity="0.22"/>
  </filter>
</defs>
<path fill="url(#gearBlue)" opacity="1" stroke="#2246D9"  stroke-width="5" stroke-linejoin="round" filter="url(#softShadow)"
	d="
M918.181335,401.213196 
	C914.485474,410.186615 910.732666,418.728058 907.425232,427.438629 
	C903.938660,436.621368 905.117126,445.048492 912.461792,452.194031 
	C916.158936,455.790924 919.888184,459.407532 923.152649,463.384827 
	C928.739441,470.191589 928.535217,477.885284 922.496887,484.142548 
	C913.820679,493.133453 904.963135,501.957764 895.961670,510.623413 
	C889.995911,516.366699 882.032166,516.598694 875.558533,511.265137 
	C871.459045,507.887482 867.814392,503.952759 864.011047,500.221710 
	C856.753052,493.101746 848.305481,491.955933 839.141113,495.556946 
	C828.142578,499.878693 817.260803,504.497101 806.317200,508.959351 
	C795.645569,513.310730 790.932617,520.177551 790.895020,531.535767 
	C790.881836,535.534729 790.940735,539.534546 790.879150,543.532654 
	C790.717163,554.052185 784.731079,560.515076 774.220825,560.785095 
	C762.564758,561.084656 750.890381,561.062927 739.232788,560.795044 
	C728.858337,560.556641 723.041443,554.305115 722.828186,543.997803 
	C722.707703,538.179016 722.879700,532.313965 722.191040,526.556946 
	C721.247803,518.672302 716.602539,513.050476 709.377930,509.959290 
	C697.136475,504.721527 684.891602,499.437439 672.389893,494.881653 
	C664.392639,491.967346 656.564331,493.475494 650.113159,499.515259 
	C646.465637,502.930145 643.057617,506.599884 639.438416,510.046356 
	C632.598389,516.559875 623.854370,516.803772 617.077698,510.304108 
	C608.300903,501.886047 599.699768,493.276611 591.234314,484.544678 
	C584.639404,477.742188 584.742371,469.207672 591.240906,462.210999 
	C594.641052,458.550201 598.375244,455.197144 601.734253,451.501190 
	C608.150757,444.441162 609.767761,436.387665 606.108643,427.450134 
	C601.505005,416.205231 596.877808,404.969971 592.250549,393.734711 
	C588.119995,383.705566 580.730835,378.620605 569.775696,378.852570 
	C565.445496,378.944275 561.107727,378.975891 556.780090,378.833313 
	C546.987488,378.510773 541.032288,372.362610 541.006775,362.624207 
	C540.975281,350.627258 540.970337,338.630096 541.008606,326.633179 
	C541.038574,317.243225 547.147400,311.078644 556.614014,310.889435 
	C561.277710,310.796204 565.950623,311.013550 570.608948,310.828186 
	C580.670959,310.427795 588.046814,305.910706 591.980408,296.371277 
	C596.802917,284.676239 601.791687,273.046539 606.407593,261.270630 
	C609.743164,252.761124 608.171265,244.877655 601.915222,238.140930 
	C598.629456,234.602722 595.005676,231.379852 591.690979,227.866928 
	C584.506226,220.252396 584.538147,211.918823 591.806213,204.438324 
	C599.701050,196.312698 607.644775,188.232559 615.676697,180.242645 
	C623.857971,172.104050 632.375671,172.153839 640.530212,180.231598 
	C643.726257,183.397568 646.802002,186.687592 650.054199,189.793716 
	C656.742310,196.181549 664.608093,197.736755 673.127747,194.429031 
	C684.918823,189.851151 696.578735,184.931915 708.259216,180.073441 
	C717.718384,176.138931 722.390564,168.805084 722.789795,158.717300 
	C722.987305,153.725937 722.722778,148.717010 722.891907,143.723633 
	C723.185059,135.066040 729.288696,129.088425 737.954529,129.023026 
	C750.117493,128.931213 762.281738,128.979706 774.445312,129.005157 
	C784.126160,129.025436 790.431213,134.988556 790.834473,144.688156 
	C791.041931,149.678589 790.820618,154.685272 790.910828,159.682495 
	C791.073730,168.705719 795.297058,175.529541 803.373840,179.163757 
	C815.813904,184.761230 828.456299,189.956223 841.223511,194.762497 
	C849.589844,197.912079 857.333618,195.670822 863.808167,189.542007 
	C867.436646,186.107346 870.796082,182.389359 874.407104,178.935257 
	C880.925171,172.700394 889.393799,172.351257 895.891357,178.553726 
	C904.927979,187.179993 913.744263,196.051208 922.368042,205.091232 
	C928.912537,211.951553 928.629089,220.568512 922.083984,227.442612 
	C918.867859,230.820404 915.465515,234.019928 912.198669,237.350433 
	C905.463623,244.216782 903.751709,253.413269 907.418579,262.228790 
	C912.148865,273.600830 916.810974,285.001190 921.510681,296.385895 
	C925.441467,305.907867 932.769470,310.480743 942.867065,310.836090 
	C947.194092,310.988312 951.530945,310.834503 955.862915,310.873169 
	C965.922302,310.962952 972.438232,316.765961 972.712891,326.678589 
	C973.045044,338.666168 973.051331,350.677521 972.708801,362.664581 
	C972.424988,372.594391 966.128418,378.408630 955.984802,378.829163 
	C951.826172,379.001556 947.654663,378.849701 943.489075,378.870422 
	C932.389099,378.925629 925.195068,383.774658 921.131226,393.913727 
	C920.202454,396.230988 919.257629,398.541809 918.181335,401.213196 
M810.370239,274.108673 
	C789.630981,258.729980 766.449768,252.962524 741.051270,257.352722 
	C702.681885,263.984985 673.919617,293.649719 668.541382,333.821625 
	C663.684814,370.096771 681.744568,406.048584 715.258728,423.209991 
	C745.868164,438.884003 776.417114,437.595978 804.960876,419.000031 
	C833.107361,400.662903 847.017517,373.802002 845.042358,339.711365 
	C843.491699,312.945953 831.915771,291.239716 810.370239,274.108673 
z"/>
<path fill="url(#gearGreen)" opacity="1" stroke="#48A92C"  stroke-width="5" stroke-linejoin="round" filter="url(#softShadow)"
	d="
M682.557129,766.773193 
	C679.359314,776.504150 681.642944,784.477844 688.654663,791.250916 
	C691.650513,794.144775 694.627930,797.063049 697.501709,800.077026 
	C704.388611,807.299927 704.400085,816.085876 697.447205,823.164734 
	C689.157104,831.604919 680.808716,839.989563 672.384399,848.295654 
	C665.444519,855.138000 656.978577,855.188416 649.733215,848.509827 
	C645.936951,845.010559 642.293518,841.345581 638.574707,837.762085 
	C631.977295,831.404907 624.095032,830.225281 615.912170,833.330017 
	C603.777344,837.934265 591.816956,843.028748 579.938965,848.269714 
	C571.049194,852.192139 566.475647,859.369385 566.225891,869.131104 
	C566.102295,873.960510 566.289734,878.798096 566.152527,883.626770 
	C565.888245,892.924622 559.947266,898.870300 550.650757,898.965393 
	C538.654480,899.088196 526.655762,899.045959 514.658569,898.983948 
	C504.715485,898.932556 498.558319,892.910034 498.186462,882.829651 
	C498.008423,878.003601 498.186279,873.165588 498.125946,868.333923 
	C498.012848,859.275391 493.727814,852.508545 485.675293,848.854065 
	C473.099396,843.146790 460.365448,837.711060 447.408356,832.949829 
	C439.807922,830.156982 432.238220,831.681580 426.101318,837.554138 
	C422.369873,841.124817 418.819580,844.884705 415.089050,848.456421 
	C408.386475,854.873352 399.773468,855.428711 393.109375,849.144226 
	C383.902191,840.461426 374.968231,831.461975 366.326385,822.215759 
	C359.985107,815.430847 360.526093,807.126282 367.034607,800.315918 
	C370.142120,797.064270 373.423370,793.979370 376.571045,790.765198 
	C383.767029,783.417480 385.210571,774.774658 381.539032,765.425659 
	C377.036804,753.961365 372.151215,742.646606 367.366486,731.294495 
	C363.449341,722.000854 356.158112,717.559326 346.294647,717.162109 
	C341.469788,716.967773 336.626343,717.246338 331.800262,717.068665 
	C322.700470,716.733765 316.951233,710.830750 316.904907,701.801575 
	C316.839966,689.137817 316.829803,676.473206 316.910706,663.809631 
	C316.963806,655.504211 322.956482,649.371155 331.349091,649.055481 
	C336.507629,648.861450 341.680511,649.085693 346.844025,648.979309 
	C356.257263,648.785461 363.195435,644.266235 366.977142,635.837402 
	C372.290314,623.995178 377.292297,611.990173 381.839935,599.835022 
	C385.275238,590.652893 383.508423,582.128479 376.196381,575.122864 
	C373.189087,572.241577 370.101593,569.429260 367.272827,566.379395 
	C360.323425,558.886780 359.904663,550.494812 366.849396,543.186462 
	C375.680511,533.892944 384.916412,524.965759 394.278259,516.201660 
	C399.782990,511.048431 408.390472,511.596893 414.299561,517.007568 
	C418.106323,520.493164 421.603394,524.314697 425.351410,527.867371 
	C432.494629,534.638306 440.826477,536.056458 449.827698,532.472534 
	C461.271759,527.915955 472.623138,523.117554 483.929932,518.227905 
	C493.221741,514.209656 498.218811,507.152527 498.146606,496.811584 
	C498.116364,492.479370 498.071411,488.145203 498.162018,483.814606 
	C498.359436,474.376160 503.684204,467.906525 512.937683,467.519257 
	C525.908997,466.976440 538.935120,466.987701 551.908264,467.503876 
	C560.782166,467.856934 565.906738,474.094299 566.183899,483.075531 
	C566.368469,489.060608 566.165955,495.093018 566.865784,501.018127 
	C567.818115,509.081482 572.481201,514.801636 579.946045,517.979126 
	C592.046997,523.129883 604.082458,528.483643 616.409607,533.036987 
	C625.078125,536.238892 633.144714,533.900757 639.846252,527.448059 
	C643.326721,524.096863 646.620056,520.547913 650.156311,517.258606 
	C656.748413,511.126770 665.200684,511.008179 671.712524,517.267212 
	C680.600830,525.810608 689.335327,534.522705 697.909668,543.381409 
	C704.343201,550.028259 704.176392,558.948730 697.780579,565.789978 
	C694.596252,569.196167 691.114502,572.323242 687.907410,575.709351 
	C681.243164,582.745667 679.076111,590.841309 682.797913,600.040161 
	C687.605591,611.922729 692.397888,623.815674 697.484375,635.579773 
	C701.205383,644.185730 708.140015,648.566040 717.457703,648.958557 
	C722.447937,649.168762 727.455444,648.928284 732.452759,649.019653 
	C741.545593,649.185791 747.928040,655.407166 748.020935,664.437622 
	C748.149475,676.933716 748.154175,689.433167 748.017029,701.929077 
	C747.922791,710.523804 741.926941,716.608459 733.231262,717.032104 
	C728.243469,717.275024 723.229309,716.953735 718.238647,717.163513 
	C708.385742,717.577637 701.082581,722.006531 697.198975,731.320923 
	C692.330139,742.998413 687.549072,754.712463 682.557129,766.773193 
M475.866852,751.636841 
	C512.797546,782.813416 568.946533,777.386597 600.778687,739.564026 
	C631.560852,702.989014 626.474976,645.895020 589.604736,615.247070 
	C550.707886,582.914551 496.234619,588.796753 464.879395,625.132996 
	C430.794525,664.632507 439.206665,721.395508 475.866852,751.636841 
z"/>
<path fill="url(#gearOrange)" opacity="1" stroke="#E86B18"  stroke-width="5" stroke-linejoin="round" filter="url(#softShadow)"
	d="
M472.750000,306.262329 
	C477.365814,310.597015 482.546021,312.388885 488.489502,312.322113 
	C493.483826,312.265991 498.509644,312.099854 503.469757,312.551270 
	C512.321533,313.356873 517.889526,318.327148 518.315186,327.160004 
	C518.931580,339.950714 518.976379,352.817108 518.334595,365.604553 
	C517.849060,375.277222 511.499512,380.268738 501.157440,380.659241 
	C496.331879,380.841431 491.485260,380.534058 486.665405,380.782532 
	C477.884399,381.235199 471.448090,385.595551 467.979034,393.614502 
	C462.758606,405.681763 457.695038,417.829041 453.015198,430.113892 
	C449.807892,438.533173 451.168030,446.513672 457.565063,453.225281 
	C460.897827,456.721924 464.459625,460.000427 467.787933,463.501129 
	C474.834808,470.913025 474.743164,479.667633 467.521851,486.962585 
	C459.551178,495.014557 451.526703,503.014160 443.459442,510.969421 
	C435.554688,518.764404 427.209534,518.757751 419.342255,511.110504 
	C415.522552,507.397552 411.848938,503.496735 407.748566,500.118744 
	C401.312103,494.816193 393.882416,493.849945 386.176147,496.870850 
	C374.398651,501.487701 362.662598,506.224213 351.032501,511.198761 
	C341.977509,515.071838 336.753052,521.840271 336.838196,532.085754 
	C336.874176,536.417542 336.906067,540.751160 336.824158,545.081726 
	C336.614807,556.150024 330.727142,562.104919 319.784821,562.185486 
	C308.288727,562.270142 296.790833,562.281494 285.294952,562.182190 
	C274.643860,562.090210 269.010956,556.386292 268.777496,545.822632 
	C268.648926,540.004761 268.776550,534.146790 268.118805,528.383423 
	C267.240448,520.686829 262.778412,515.010986 255.804382,511.956787 
	C243.456482,506.549316 231.001816,501.338379 218.368179,496.647461 
	C210.121643,493.585510 202.286407,495.282562 195.787857,501.569183 
	C192.315308,504.928467 189.026093,508.483063 185.470016,511.749054 
	C178.168106,518.455322 169.889648,518.635742 162.698318,511.804382 
	C153.761795,503.315125 145.052414,494.574097 136.509964,485.687073 
	C130.734161,479.678223 130.835175,471.077484 136.429779,464.885651 
	C139.553528,461.428406 143.028030,458.290680 146.275940,454.942444 
	C154.037262,446.941467 156.006836,437.970917 151.367996,427.516022 
	C147.048828,417.781555 143.192642,407.840881 139.171524,397.975159 
	C133.740036,384.648956 127.865707,380.757385 113.323380,380.666687 
	C108.673660,380.637695 103.974457,380.602234 99.389481,379.937744 
	C91.957397,378.860626 87.053230,372.866455 87.014778,365.309326 
	C86.951202,352.813202 86.967087,340.316406 87.007782,327.820068 
	C87.033142,320.034332 91.871475,313.991821 99.673943,312.927155 
	C105.082596,312.189148 110.631111,312.315369 116.116249,312.332855 
	C126.857918,312.367096 134.113068,307.401184 138.155960,297.537750 
	C142.701569,286.447754 147.238358,275.354065 151.829300,264.282837 
	C155.764481,254.793045 154.066315,246.352478 147.115692,238.947983 
	C143.696320,235.305359 139.994049,231.929047 136.556259,228.302826 
	C131.273056,222.730011 130.206879,214.898590 135.332947,209.236710 
	C144.819061,198.759033 154.824875,188.706116 165.162216,179.063751 
	C170.522964,174.063385 178.777008,174.953796 184.341858,180.038651 
	C188.150543,183.518860 191.657532,187.328201 195.319687,190.970001 
	C202.502106,198.112473 210.867798,199.474564 220.111115,195.787369 
	C230.933899,191.470154 241.702606,187.016968 252.484558,182.597855 
	C263.793335,177.962814 268.707916,170.625336 268.780457,158.321533 
	C268.806000,153.989670 268.688782,149.653320 268.846680,145.326675 
	C269.155121,136.876450 275.163025,131.013672 283.577057,130.966431 
	C295.739899,130.898117 307.924469,131.385620 320.060028,130.804855 
	C330.044220,130.327072 336.678833,137.724960 336.819061,147.148911 
	C336.888458,151.813293 336.822021,156.479507 336.850677,161.144684 
	C336.910400,170.867508 341.681061,177.704849 350.355591,181.487839 
	C362.253723,186.676697 374.309021,191.523102 386.415161,196.211014 
	C394.745331,199.436737 402.485779,197.941315 409.066254,191.757645 
	C412.585144,188.450928 415.788879,184.808502 419.313110,181.507919 
	C427.022064,174.288193 435.758698,174.329605 443.254211,181.692169 
	C451.455597,189.748032 459.572754,197.892670 467.595520,206.126373 
	C474.946533,213.670670 474.791626,222.355469 467.354950,229.955887 
	C464.092377,233.290283 460.646362,236.451340 457.483307,239.875565 
	C451.101379,246.784500 449.715546,254.785751 453.169922,263.458374 
	C457.789307,275.055756 462.537567,286.604950 467.461578,298.075653 
	C468.680573,300.915375 470.790527,303.372620 472.750000,306.262329 
M388.384308,324.147095 
	C385.066528,310.995361 378.929443,299.248779 370.201019,288.942596 
	C345.004456,259.191467 303.005524,249.551758 267.070526,265.109863 
	C231.363327,280.569336 209.914917,317.578979 214.202133,356.335236 
	C221.401672,421.418488 294.332397,456.514771 349.993073,421.594604 
	C379.130432,403.314514 398.992279,366.635468 388.384308,324.147095 
z"/>
<path fill="url(#ringSilver)" opacity="1" stroke="#FFFFFF"  stroke-width="2" stroke-linejoin="round"
	d="
M810.649536,274.332062 
	C831.915771,291.239716 843.491699,312.945953 845.042358,339.711365 
	C847.017517,373.802002 833.107361,400.662903 804.960876,419.000031 
	C776.417114,437.595978 745.868164,438.884003 715.258728,423.209991 
	C681.744568,406.048584 663.684814,370.096771 668.541382,333.821625 
	C673.919617,293.649719 702.681885,263.984985 741.051270,257.352722 
	C766.449768,252.962524 789.630981,258.729980 810.649536,274.332062 
M722.350525,279.795990 
	C716.961182,283.930634 711.565247,288.056732 706.185547,292.203857 
	C703.763062,294.071381 703.738159,296.098907 705.360596,298.675568 
	C709.525574,305.290436 713.453186,312.054352 717.513977,318.735382 
	C720.730103,324.026459 724.003052,329.282928 727.616272,335.148224 
	C740.389099,313.437744 752.643799,292.607849 765.133057,271.379364 
	C749.616211,269.493744 735.872864,272.231873 722.350525,279.795990 
M741.500000,374.076172 
	C725.160706,374.076172 708.821350,374.076172 692.388184,374.076172 
	C692.529175,375.386780 692.475586,375.753296 692.611145,376.025604 
	C702.520874,395.933258 718.341431,408.693787 739.699829,414.532440 
	C740.940063,414.871460 743.434937,413.449249 744.221558,412.160461 
	C749.331482,403.788330 754.156555,395.241272 759.018555,386.719360 
	C761.274597,382.765045 763.404236,378.738678 765.957275,374.076385 
	C757.447388,374.076385 749.973694,374.076385 741.500000,374.076172 
M831.922852,342.593842 
	C831.175537,336.999542 830.429321,331.405060 829.680481,325.810974 
	C829.190430,322.149750 827.115540,321.031799 823.465881,321.091003 
	C811.136047,321.290985 798.800903,321.152649 786.467957,321.187592 
	C785.070557,321.191559 783.674011,321.474182 781.431396,321.720490 
	C793.929016,343.439209 805.995239,364.408081 818.315735,385.818909 
	C827.697876,372.716980 831.631165,358.707855 831.922852,342.593842 
M794.827515,362.678314 
	C793.054626,359.754791 791.281799,356.831299 788.793640,352.728302 
	C776.303040,374.449860 764.406250,395.138763 752.485413,415.869507 
	C753.776245,416.545471 754.057068,416.813141 754.351990,416.829803 
	C776.214111,418.063019 794.809814,410.716339 810.155579,395.229980 
	C811.083435,394.293640 811.211975,391.475098 810.509827,390.188873 
	C805.569763,381.139374 800.314209,372.262146 794.827515,362.678314 
M772.500244,312.835785 
	C789.536377,312.835785 806.572510,312.835785 823.988220,312.835785 
	C823.714905,311.292572 823.750366,310.601898 823.475891,310.071777 
	C813.779907,291.345032 798.561523,279.263702 778.500732,273.293884 
	C776.971802,272.838867 773.861389,274.244476 772.955566,275.699829 
	C766.196411,286.559448 759.791382,297.640045 753.330750,308.683807 
	C752.729309,309.712006 752.512451,310.965240 751.868835,312.835266 
	C758.928894,312.835266 765.214722,312.835266 772.500244,312.835785 
M718.740845,337.756836 
	C711.767212,326.305359 704.793579,314.853882 697.724915,303.246307 
	C686.076416,317.934479 681.535706,345.104431 687.327881,362.657959 
	C688.293030,365.583038 690.062256,365.882324 692.594177,365.863739 
	C702.921204,365.787933 713.249146,365.832703 723.576721,365.832977 
	C727.165039,365.833069 730.753357,365.833008 735.486877,365.833008 
	C729.595886,355.984344 724.337280,347.192932 718.740845,337.756836 
z"/>
<path fill="url(#ringSilver)" opacity="1" stroke="#FFFFFF"  stroke-width="2" stroke-linejoin="round"
	d="
M475.588928,751.414062 
	C439.206665,721.395508 430.794525,664.632507 464.879395,625.132996 
	C496.234619,588.796753 550.707886,582.914551 589.604736,615.247070 
	C626.474976,645.895020 631.560852,702.989014 600.778687,739.564026 
	C568.946533,777.386597 512.797546,782.813416 475.588928,751.414062 
M496.062958,669.503540 
	C496.062958,680.336548 496.191711,691.171936 495.989136,702.001160 
	C495.923431,705.515381 496.899292,707.843018 499.862732,709.907959 
	C506.556366,714.572449 512.967407,719.641113 519.522827,724.505859 
	C522.932617,727.036316 526.404724,729.482910 530.403564,732.367615 
	C530.403564,697.204590 530.403564,662.928223 530.403564,627.926575 
	C522.697876,633.614441 516.017029,639.545471 508.430542,643.897766 
	C498.496796,649.596863 493.694183,657.032288 496.062958,669.503540 
M473.096191,692.494446 
	C473.096191,697.238342 473.096191,701.982300 473.096191,706.633240 
	C479.011169,706.633240 484.065613,706.633240 489.576324,706.633240 
	C489.576324,689.519897 489.619476,672.773682 489.465179,656.029358 
	C489.456268,655.063110 487.892120,653.345093 486.965454,653.283936 
	C482.551575,652.992554 478.107880,653.153442 473.096313,653.153442 
	C473.096313,666.346436 473.096313,678.921204 473.096191,692.494446 
M570.950500,640.541748 
	C591.273376,663.950745 591.185852,696.764099 570.907349,719.840515 
	C569.689209,721.226746 568.606140,724.658447 569.334290,725.482788 
	C571.984924,728.483337 573.592102,725.156921 575.144531,723.529724 
	C597.756714,699.827148 597.478149,659.417603 574.448059,636.094482 
	C573.320435,634.952454 570.964478,635.023376 569.180481,634.529480 
	C569.606079,636.362122 570.031677,638.194763 570.950500,640.541748 
M561.277771,665.442627 
	C566.745117,679.919983 564.888184,693.139526 554.782532,705.129089 
	C553.812927,706.279419 554.151611,708.532532 553.882874,710.273804 
	C555.582703,709.848999 557.832153,709.976990 558.899475,708.915955 
	C573.998596,693.905396 573.766541,665.423645 558.449341,650.994629 
	C557.473694,650.075562 555.439087,650.280518 553.897156,649.962585 
	C554.044800,651.578430 553.709290,653.464722 554.433289,654.757812 
	C556.371704,658.220154 558.764282,661.428223 561.277771,665.442627 
M548.001404,676.473572 
	C546.235168,672.957764 544.636719,669.338379 542.578430,666.002808 
	C542.096191,665.221313 540.057678,665.400085 538.735168,665.137085 
	C538.561279,666.594604 537.684143,668.593384 538.323975,669.424500 
	C543.744751,676.466064 543.836121,683.296509 538.605591,690.490662 
	C537.898376,691.463318 538.754944,693.573059 538.887390,695.156311 
	C540.300903,694.739685 542.167480,694.756714 543.051453,693.833191 
	C547.469360,689.217590 548.891602,683.543030 548.001404,676.473572 
z"/>
<path fill="url(#ringSilver)" opacity="1" stroke="#FFFFFF"  stroke-width="2" stroke-linejoin="round"
	d="
M388.516907,324.537781 
	C398.992279,366.635468 379.130432,403.314514 349.993073,421.594604 
	C294.332397,456.514771 221.401672,421.418488 214.202133,356.335236 
	C209.914917,317.578979 231.363327,280.569336 267.070526,265.109863 
	C303.005524,249.551758 345.004456,259.191467 370.201019,288.942596 
	C378.929443,299.248779 385.066528,310.995361 388.516907,324.537781 
M364.398895,385.835571 
	C374.309174,370.212097 377.460724,353.009552 374.442780,335.069336 
	C368.199402,297.955139 337.822113,273.496094 300.178040,273.836121 
	C249.179794,274.296844 212.822678,328.458405 235.613464,377.756195 
	C247.090683,402.582123 267.068237,417.221558 294.453278,419.804688 
	C323.959259,422.587921 347.377563,411.234375 364.398895,385.835571 
z"/>
<path fill="url(#shutterPurple)" opacity="1" stroke="#A844D8"  stroke-width="1.5" stroke-linejoin="round"
	d="
M722.675354,279.619385 
	C735.872864,272.231873 749.616211,269.493744 765.133057,271.379364 
	C752.643799,292.607849 740.389099,313.437744 727.616272,335.148224 
	C724.003052,329.282928 720.730103,324.026459 717.513977,318.735382 
	C713.453186,312.054352 709.525574,305.290436 705.360596,298.675568 
	C703.738159,296.098907 703.763062,294.071381 706.185547,292.203857 
	C711.565247,288.056732 716.961182,283.930634 722.675354,279.619385 
z"/>
<path fill="url(#shutterPurple)" opacity="1" stroke="#A844D8"  stroke-width="1.5" stroke-linejoin="round"
	d="
M742.000000,374.076294 
	C749.973694,374.076385 757.447388,374.076385 765.957275,374.076385 
	C763.404236,378.738678 761.274597,382.765045 759.018555,386.719360 
	C754.156555,395.241272 749.331482,403.788330 744.221558,412.160461 
	C743.434937,413.449249 740.940063,414.871460 739.699829,414.532440 
	C718.341431,408.693787 702.520874,395.933258 692.611145,376.025604 
	C692.475586,375.753296 692.529175,375.386780 692.388184,374.076172 
	C708.821350,374.076172 725.160706,374.076172 742.000000,374.076294 
z"/>
<path fill="url(#shutterPurple)" opacity="1" stroke="#A844D8"  stroke-width="1.5" stroke-linejoin="round"
	d="
M831.924377,343.062500 
	C831.631165,358.707855 827.697876,372.716980 818.315735,385.818909 
	C805.995239,364.408081 793.929016,343.439209 781.431396,321.720490 
	C783.674011,321.474182 785.070557,321.191559 786.467957,321.187592 
	C798.800903,321.152649 811.136047,321.290985 823.465881,321.091003 
	C827.115540,321.031799 829.190430,322.149750 829.680481,325.810974 
	C830.429321,331.405060 831.175537,336.999542 831.924377,343.062500 
z"/>
<path fill="url(#shutterPurple)" opacity="1" stroke="#A844D8"  stroke-width="1.5" stroke-linejoin="round"
	d="
M794.993469,363.004089 
	C800.314209,372.262146 805.569763,381.139374 810.509827,390.188873 
	C811.211975,391.475098 811.083435,394.293640 810.155579,395.229980 
	C794.809814,410.716339 776.214111,418.063019 754.351990,416.829803 
	C754.057068,416.813141 753.776245,416.545471 752.485413,415.869507 
	C764.406250,395.138763 776.303040,374.449860 788.793640,352.728302 
	C791.281799,356.831299 793.054626,359.754791 794.993469,363.004089 
z"/>
<path fill="url(#shutterPurple)" opacity="1" stroke="#A844D8"  stroke-width="1.5" stroke-linejoin="round"
	d="
M772.000366,312.835510 
	C765.214722,312.835266 758.928894,312.835266 751.868835,312.835266 
	C752.512451,310.965240 752.729309,309.712006 753.330750,308.683807 
	C759.791382,297.640045 766.196411,286.559448 772.955566,275.699829 
	C773.861389,274.244476 776.971802,272.838867 778.500732,273.293884 
	C798.561523,279.263702 813.779907,291.345032 823.475891,310.071777 
	C823.750366,310.601898 823.714905,311.292572 823.988220,312.835785 
	C806.572510,312.835785 789.536377,312.835785 772.000366,312.835510 
z"/>
<path fill="url(#shutterPurple)" opacity="1" stroke="#A844D8"  stroke-width="1.5" stroke-linejoin="round"
	d="
M718.909790,338.079193 
	C724.337280,347.192932 729.595886,355.984344 735.486877,365.833008 
	C730.753357,365.833008 727.165039,365.833069 723.576721,365.832977 
	C713.249146,365.832703 702.921204,365.787933 692.594177,365.863739 
	C690.062256,365.882324 688.293030,365.583038 687.327881,362.657959 
	C681.535706,345.104431 686.076416,317.934479 697.724915,303.246307 
	C704.793579,314.853882 711.767212,326.305359 718.909790,338.079193 
z"/>
<path fill="url(#speakerBlue)" opacity="1" stroke="#3769F2"  stroke-width="1.5" stroke-linejoin="round"
	d="
M496.062988,669.004883 
	C493.694183,657.032288 498.496796,649.596863 508.430542,643.897766 
	C516.017029,639.545471 522.697876,633.614441 530.403564,627.926575 
	C530.403564,662.928223 530.403564,697.204590 530.403564,732.367615 
	C526.404724,729.482910 522.932617,727.036316 519.522827,724.505859 
	C512.967407,719.641113 506.556366,714.572449 499.862732,709.907959 
	C496.899292,707.843018 495.923431,705.515381 495.989136,702.001160 
	C496.191711,691.171936 496.062958,680.336548 496.062988,669.004883 
z"/>
<path fill="url(#speakerBlue)" opacity="1" stroke="#3769F2"  stroke-width="1.5" stroke-linejoin="round"
	d="
M473.096252,691.995239 
	C473.096313,678.921204 473.096313,666.346436 473.096313,653.153442 
	C478.107880,653.153442 482.551575,652.992554 486.965454,653.283936 
	C487.892120,653.345093 489.456268,655.063110 489.465179,656.029358 
	C489.619476,672.773682 489.576324,689.519897 489.576324,706.633240 
	C484.065613,706.633240 479.011169,706.633240 473.096191,706.633240 
	C473.096191,701.982300 473.096191,697.238342 473.096252,691.995239 
z"/>
<path fill="url(#speakerBlue)" opacity="1" stroke="#3769F2"  stroke-width="1.5" stroke-linejoin="round"
	d="
M570.703857,640.284546 
	C570.031677,638.194763 569.606079,636.362122 569.180481,634.529541 
	C570.964478,635.023376 573.320435,634.952454 574.448059,636.094482 
	C597.478149,659.417603 597.756714,699.827148 575.144531,723.529724 
	C573.592102,725.156921 571.984924,728.483337 569.334290,725.482788 
	C568.606140,724.658447 569.689209,721.226746 570.907349,719.840515 
	C591.185852,696.764099 591.273376,663.950745 570.703857,640.284546 
z"/>
<path fill="url(#speakerBlue)" opacity="1" stroke="#3769F2"  stroke-width="1.5" stroke-linejoin="round"
	d="
M561.127075,665.089966 
	C558.764282,661.428223 556.371704,658.220154 554.433289,654.757812 
	C553.709290,653.464722 554.044800,651.578430 553.897156,649.962646 
	C555.439087,650.280518 557.473694,650.075562 558.449341,650.994629 
	C573.766541,665.423645 573.998596,693.905396 558.899475,708.915955 
	C557.832153,709.976990 555.582703,709.848999 553.882874,710.273804 
	C554.151611,708.532532 553.812927,706.279419 554.782532,705.129089 
	C564.888184,693.139526 566.745117,679.919983 561.127075,665.089966 
z"/>
<path fill="url(#speakerBlue)" opacity="1" stroke="#3769F2"  stroke-width="1.5" stroke-linejoin="round"
	d="
M548.033813,676.867554 
	C548.891602,683.543030 547.469360,689.217590 543.051453,693.833191 
	C542.167480,694.756714 540.300903,694.739685 538.887390,695.156250 
	C538.754944,693.573059 537.898376,691.463318 538.605591,690.490662 
	C543.836121,683.296509 543.744751,676.466064 538.323975,669.424500 
	C537.684143,668.593384 538.561279,666.594604 538.735168,665.137085 
	C540.057678,665.400085 542.096191,665.221313 542.578430,666.002808 
	C544.636719,669.338379 546.235168,672.957764 548.033813,676.867554 
z"/>
<path fill="url(#playRed)" opacity="1" stroke="#E12A2A"  stroke-width="2" stroke-linejoin="round"
	d="
M364.207581,386.145813 
	C347.377563,411.234375 323.959259,422.587921 294.453278,419.804688 
	C267.068237,417.221558 247.090683,402.582123 235.613464,377.756195 
	C212.822678,328.458405 249.179794,274.296844 300.178040,273.836121 
	C337.822113,273.496094 368.199402,297.955139 374.442780,335.069336 
	C377.460724,353.009552 374.309174,370.212097 364.207581,386.145813 
M293.525208,372.021027 
	C306.218536,363.932922 318.911865,355.844818 332.033356,347.483917 
	C316.160950,337.396729 300.846252,327.664001 285.316467,317.794556 
	C285.316467,337.969147 285.316467,357.317535 285.316467,377.158112 
	C288.165070,375.377441 290.538239,373.894012 293.525208,372.021027 
z"/>
<path fill="url(#iconWhite)" opacity="1" stroke="none" 
	d="
M293.218323,372.215790 
	C290.538239,373.894012 288.165070,375.377441 285.316467,377.158112 
	C285.316467,357.317535 285.316467,337.969147 285.316467,317.794556 
	C300.846252,327.664001 316.160950,337.396729 332.033356,347.483917 
	C318.911865,355.844818 306.218536,363.932922 293.218323,372.215790 
z"/>
</svg>