<svg xmlns="http://www.w3.org/2000/svg" viewBox="0 0 600 520" role="img" aria-labelledby="zl-s-title">
  <title id="zl-s-title">ZumiLabs Studio</title>
  <defs>
    <linearGradient id="zl-s-grad" x1="0" y1="0" x2="1" y2="1">
      <stop offset="0%" stop-color="#7C3AED"/>
      <stop offset="55%" stop-color="#EC4899"/>
      <stop offset="100%" stop-color="#F59E0B"/>
    </linearGradient>
  </defs>
  <!-- Icon centered, 256x256 inside top -->
  <g transform="translate(172 16)">
    <path fill="url(#zl-s-grad)" fill-rule="evenodd" d="
      M 96 26 h 64 a 8 8 0 0 1 8 8 v 8 a 8 8 0 0 1 -8 8 h -4 v 44
      l 52 90 a 28 28 0 0 1 -24 42 H 72 a 28 28 0 0 1 -24 -42 l 52 -90 V 50
      h -4 a 8 8 0 0 1 -8 -8 v -8 a 8 8 0 0 1 8 -8 Z
      M 108 168 L 156 196 L 108 224 Z
    "/>
    <circle cx="172" cy="178" r="6" fill="url(#zl-s-grad)" opacity="0.85"/>
    <circle cx="84"  cy="200" r="4" fill="url(#zl-s-grad)" opacity="0.7"/>
  </g>
  <!-- Wordmark -->
  <g font-family="Inter, 'Helvetica Neue', Arial, sans-serif" text-anchor="middle">
    <text x="300" y="400" font-size="84" font-weight="800" fill="#0F172A" letter-spacing="-2">Zumi<tspan fill="url(#zl-s-grad)">Labs</tspan></text>
    <text x="300" y="450" font-size="26" font-weight="500" fill="#475569" letter-spacing="14">STUDIO</text>
  </g>
</svg>
