<svg xmlns="http://www.w3.org/2000/svg" viewBox="0 0 900 256" role="img" aria-labelledby="zl-m-title" fill="currentColor" color="#0F172A">
  <title id="zl-m-title">ZumiLabs Studio</title>
  <g>
    <path fill-rule="evenodd" d="
      M 96 26 h 64 a 8 8 0 0 1 8 8 v 8 a 8 8 0 0 1 -8 8 h -4 v 44
      l 52 90 a 28 28 0 0 1 -24 42 H 72 a 28 28 0 0 1 -24 -42 l 52 -90 V 50
      h -4 a 8 8 0 0 1 -8 -8 v -8 a 8 8 0 0 1 8 -8 Z
      M 108 168 L 156 196 L 108 224 Z
    "/>
    <circle cx="172" cy="178" r="6"/>
    <circle cx="84"  cy="200" r="4"/>
  </g>
  <g font-family="Inter, 'Helvetica Neue', Arial, sans-serif">
    <text x="270" y="148" font-size="96" font-weight="800" letter-spacing="-2">ZumiLabs</text>
    <text x="272" y="196" font-size="28" font-weight="500" letter-spacing="10">STUDIO</text>
  </g>
</svg>
